<?xml version="1.0" encoding="UTF-8" standalone="no"?>
<!DOCTYPE svg PUBLIC "-//W3C//DTD SVG 1.1//EN" "http://www.w3.org/Graphics/SVG/1.1/DTD/svg11.dtd">
<svg xmlns="http://www.w3.org/2000/svg">
<metadata/>
<defs>
<font id="MenomoniaItalic" horiz-adv-x="1040">
<font-face units-per-em="2048" ascent="1589" descent="-459"/>
<missing-glyph horiz-adv-x="778"/>
<glyph horiz-adv-x="0"/>
<glyph horiz-adv-x="2048"/>
<glyph unicode=" " horiz-adv-x="778"/>
<glyph unicode="	" horiz-adv-x="778"/>
<glyph unicode=" " horiz-adv-x="778"/>
<glyph unicode="!" horiz-adv-x="434" d="M113 88q6 40 38.5 69t71.5 29q38 0 60 -29t16 -69q-8 -43 -38 -71.5t-68 -28.5q-40 0 -63.5 29t-16.5 71zM195 377l118 862q4 38 -14 73.5t-47 53.5h246l-197 -989h-106z"/>
<glyph unicode="&quot;" horiz-adv-x="604" d="M242 881l55 489h160l-105 -491zM537 881l55 489h160l-105 -491z"/>
<glyph unicode="#" horiz-adv-x="1148" d="M111 485l57 111h180l103 240h-187l58 116h178l125 295l153 6l-127 -301h199l125 295l158 6l-127 -301h184l-55 -116h-179l-102 -240h195l-50 -111h-192l-135 -319h-156l135 319h-198l-136 -319h-151l135 319h-190zM500 596h198l103 240h-189z"/>
<glyph unicode="$" horiz-adv-x="956" d="M162 274q0 48 20 134q35 -90 114 -145.5t177 -63.5l74 467q-50 27 -78 43t-69 45.5t-62.5 56.5t-38 67t-16.5 85q0 75 31 135t83.5 98.5t115.5 61t134 28.5l21 131h114l-20 -129q146 -8 293 -86l-33 -227q-39 109 -103.5 153.5t-175.5 49.5l-63 -408q59 -32 97.5 -57.5 t81 -64.5t64 -87.5t21.5 -107.5q0 -104 -54 -184t-136 -123t-183 -56l-22 -141h-115l23 137q-77 6 -154 34t-133 73q-8 54 -8 81zM442 987q0 -49 33 -85.5t98 -74.5l54 340q-76 -21 -130.5 -68.5t-54.5 -111.5zM590 211q81 25 138.5 85t57.5 136q0 54 -34.5 95t-98.5 81z "/>
<glyph unicode="%" horiz-adv-x="1337" d="M174 872q8 53 31 97t54 73.5t68 50.5t74.5 30.5t73.5 9.5q33 0 70.5 -17t72.5 -49.5t53 -90t7 -128.5q-13 -81 -46 -139.5t-76.5 -88t-85.5 -42.5t-85 -13q-44 0 -86.5 22.5t-74 61t-46 97.5t-4.5 126zM195 0l919 1145h176l-921 -1145h-174zM324 848q-7 -79 20.5 -124.5 t75.5 -45.5q42 0 74 45.5t36 114.5q5 85 -19 136.5t-71 51.5q-38 0 -75 -54t-41 -124zM768 285q10 65 41.5 118t74.5 85t90 49.5t93 17.5t87.5 -19t73 -54t45.5 -92.5t3 -127.5q-14 -87 -64 -151t-111 -92.5t-124 -28.5q-95 0 -161.5 86t-47.5 209zM918 270 q-6 -77 24 -124.5t78 -47.5q42 0 72.5 47t35.5 117q6 86 -17.5 135t-72.5 49q-43 0 -78.5 -50t-41.5 -126z"/>
<glyph unicode="&amp;" horiz-adv-x="1261" d="M96 274q0 37 9 74.5t20 67.5t35.5 65t42 58.5t53 57t54 50.5t60.5 49t57 43.5t58 42.5q-6 10 -34 53t-38 62t-28 54.5t-24.5 67t-6.5 64.5q0 121 98.5 208t221.5 87q112 0 186 -54t74 -161q0 -24 -5 -47.5t-17.5 -48.5t-22 -43.5t-32.5 -45.5t-33.5 -40.5t-39.5 -41.5 t-37 -36t-39 -36.5t-34 -30.5l203 -301l149 204h141l-227 -303l254 -393h-315q55 32 55 88q0 12 -6.5 28.5t-19.5 39t-21.5 36t-26 38t-18.5 26.5q-49 -59 -88 -99t-93.5 -83.5t-115 -65.5t-125.5 -22q-146 0 -235 72.5t-89 215.5zM258 272q0 -72 45 -122t125 -50 q36 0 79 19.5t77.5 44.5t77 65t63.5 63t51 56l-225 346q-124 -112 -173 -168q-120 -138 -120 -254zM512 1098q0 -37 18.5 -81t32.5 -64.5t49 -69.5q168 157 168 266q0 52 -26.5 84.5t-77.5 32.5q-61 0 -112.5 -53.5t-51.5 -114.5z"/>
<glyph unicode="'" horiz-adv-x="354" d="M242 881l55 489h160l-105 -491z"/>
<glyph unicode="(" horiz-adv-x="636" d="M159.5 449q-11.5 102 6.5 202q20 122 62 231.5t91 190t123.5 164.5t134 139t148.5 129l55 -84q-85 -76 -141 -132.5t-111 -127.5t-90.5 -142.5t-64.5 -164t-47 -205.5q-23 -145 37 -364t172 -414l-78 -80q-54 62 -101 131.5t-90.5 157t-69 177.5t-37 192z"/>
<glyph unicode=")" horiz-adv-x="636" d="M43 -129q174 195 303 413.5t152 364.5q18 113 18.5 205.5t-12.5 164t-46 142.5t-70.5 127.5t-98.5 132.5l80 84q46 -52 77.5 -91t70.5 -95t63.5 -105.5t48 -115t33.5 -131t9.5 -147t-14.5 -169.5q-19 -122 -76.5 -249t-139.5 -238t-168 -202.5t-179 -170.5z"/>
<glyph unicode="*" horiz-adv-x="870" d="M231 1044l91 152l249 -158l2 316l177 35l-103 -349l299 162l41 -153l-340 -74l201 -232l-152 -104l-102 295l-203 -287l-115 98l265 228z"/>
<glyph unicode="+" horiz-adv-x="897" d="M154 487l16 111h293l49 303h150l-50 -303h295l-16 -111h-295l-49 -303h-150l49 303h-292z"/>
<glyph unicode="," horiz-adv-x="344" d="M-10 -197q41 51 76.5 128t42.5 116q10 62 -13 96q84 23 168 23q10 -36 0 -105q-16 -95 -170 -276z"/>
<glyph unicode="-" horiz-adv-x="759" d="M174 504l19 119h542l-18 -119h-543z"/>
<glyph unicode="." horiz-adv-x="403" d="M98 86q6 43 38 71.5t73 28.5q40 0 63 -28.5t17 -71.5q-8 -41 -39.5 -69.5t-71.5 -28.5t-63.5 28t-16.5 70z"/>
<glyph unicode="/" horiz-adv-x="966" d="M39 0l956 1370h129l-950 -1370h-135z"/>
<glyph unicode="0" horiz-adv-x="1122" d="M141.5 512.5q1.5 86.5 16.5 181.5q21 134 71.5 254.5t126 218.5t182.5 155.5t230 57.5q88 0 158 -27.5t116.5 -77t78 -115.5t44 -146t12 -166t-15.5 -178q-16 -104 -49.5 -201.5t-86.5 -185.5t-120 -153t-156 -103.5t-188 -38.5q-92 0 -164.5 26.5t-120.5 74.5 t-79.5 112.5t-44 144.5t-11 166.5zM301 421.5q3 -67.5 19.5 -123t44.5 -101t78.5 -71.5t117.5 -26q89 0 167.5 55.5t131 143t86.5 179t49 179.5q12 68 18.5 126t8 122t-5.5 115t-25 99t-47.5 79.5t-76.5 50.5t-109 19q-77 0 -145.5 -40t-116.5 -102t-86.5 -143.5 t-60.5 -158.5t-34 -152q-10 -63 -13.5 -123t-0.5 -127.5z"/>
<glyph unicode="1" horiz-adv-x="661" d="M233 0q49 29 77 60.5t36 82.5l141 904q-90 -121 -180 -211l-37 112q160 182 359 445l61 -35l-215 -1358h-242z"/>
<glyph unicode="2" horiz-adv-x="1095" d="M125 129l520 483q19 18 72 63.5t83.5 75t70.5 73.5t63 89t31 91q17 118 -41.5 189t-169.5 71q-82 0 -174.5 -29t-169 -81.5t-103.5 -113.5l33 211q84 60 202 92.5t236 32.5q79 0 150.5 -25.5t118.5 -72.5q47 -49 68.5 -122t8.5 -155q-6 -37 -17 -71.5t-22 -61 t-32.5 -57.5t-37 -50.5t-46.5 -50.5t-49 -48t-58.5 -53.5t-60.5 -55.5l-471 -440h649l-18 -113h-805z"/>
<glyph unicode="3" d="M127 102l6 166q49 -47 79.5 -72t73 -51t89.5 -36.5t106 -10.5q166 0 276.5 108t110.5 273q0 76 -40.5 131.5t-112.5 83.5l-287 -2l16 117q207 -2 289 0q13 0 45 16q71 36 121.5 115t50.5 158q0 88 -64 128t-157 40q-108 0 -240.5 -66t-181.5 -153l33 202q82 61 193 94 t219 33q54 0 104 -9.5t97 -30.5t81.5 -52.5t55 -78.5t20.5 -105q0 -112 -73.5 -203.5t-182.5 -140.5q77 -38 125.5 -117.5t48.5 -165.5q0 -148 -81 -261t-206.5 -169.5t-269.5 -56.5q-199 0 -344 116z"/>
<glyph unicode="4" horiz-adv-x="1036" d="M129 516l696 850h181l-134 -834h170l-22 -151h-170l-62 -381h-241q48 29 76 60.5t36 82.5l39 240l-516 2zM281 532h440l104 656z"/>
<glyph unicode="5" horiz-adv-x="1069" d="M143 104l9 220q117 -226 362 -226q101 0 185.5 56.5t131 146t46.5 188.5q0 107 -68 176.5t-174 69.5q-67 0 -163.5 -20.5t-166.5 -46.5l-45 49l105 649h751l-33 -201q-23 43 -76 65.5t-108 22.5h-401l-72 -446q142 43 258 43q147 0 249.5 -98.5t102.5 -245.5 q0 -233 -150.5 -376.5t-385.5 -143.5q-94 0 -190 31t-167 87z"/>
<glyph unicode="6" horiz-adv-x="1069" d="M170.5 430.5q0.5 96.5 15.5 204.5q17 110 52 213.5t93.5 200.5t132.5 169.5t175 116t215 43.5q146 0 250 -47l-33 -198q-71 131 -233 131q-75 0 -144.5 -36t-122.5 -95t-97 -136t-71.5 -156t-42.5 -157q167 170 349 170q187 0 281.5 -125t64.5 -313q-13 -79 -54.5 -155.5 t-103 -138t-147.5 -99t-181 -37.5q-102 0 -179 33.5t-122.5 92.5t-71.5 140.5t-25.5 178zM328 451q-4 -61 4.5 -116.5t33.5 -110t80 -87.5t134 -33q115 0 206 103t111 227q21 138 -44 221.5t-169 83.5q-124 0 -231 -92.5t-125 -195.5z"/>
<glyph unicode="7" horiz-adv-x="1091" d="M254 0l756 1253h-484q-72 0 -127 -22t-108 -68l33 203h862l12 -98l-762 -1268h-182z"/>
<glyph unicode="8" d="M122.5 296q1.5 36 4.5 69q19 118 119 218.5t221 139.5q-86 49 -139 140t-35 196q23 143 150 231t298 88q73 0 140.5 -20t121.5 -58.5t81 -101.5t14 -141q-8 -54 -42 -109.5t-80 -97.5t-93.5 -74t-87.5 -47q58 -31 99 -61t79.5 -73.5t53 -101.5t3.5 -128 q-19 -114 -94.5 -202t-182 -132.5t-225.5 -44.5q-75 0 -137 13t-104.5 35.5t-75.5 53t-50 64.5t-28.5 71t-10 73zM283 352q-4 -28 1 -60.5t23 -66.5t47 -61t77.5 -44.5t109.5 -17.5q123 0 218 82.5t111 188.5q5 28 -1 54.5t-16.5 46.5t-32 41t-39.5 35t-49.5 32t-50 27 t-52.5 25.5t-47 22.5q-129 -42 -205 -121.5t-94 -183.5zM453 1071q-16 -100 38.5 -165t170.5 -120q111 45 188 118.5t86 133.5q17 105 -42 166.5t-161 61.5q-91 0 -179 -56.5t-101 -138.5z"/>
<glyph unicode="9" horiz-adv-x="1069" d="M182 33l31 198q18 -25 33.5 -42.5t44 -40.5t68 -35.5t87.5 -12.5q75 0 144.5 36t122.5 95t97 136t71.5 156t42.5 157q-167 -170 -349 -170q-187 0 -282 125t-64 313q17 106 83.5 203.5t176.5 162t236 64.5q120 0 204 -47.5t125.5 -133t54.5 -204t-9 -260.5 q-15 -110 -50 -215t-93.5 -202t-133.5 -170t-176.5 -116.5t-216.5 -43.5q-148 0 -248 47zM387 930q-21 -138 44 -221.5t169 -83.5q127 0 233.5 95t120.5 206q3 43 2.5 88.5t-17.5 89.5t-43 79t-74.5 56t-112.5 21q-77 0 -148.5 -51t-116 -125.5t-57.5 -153.5z"/>
<glyph unicode=":" horiz-adv-x="372" d="M92 88q6 40 38.5 69t72.5 29q38 0 60 -29t16 -69q-8 -43 -38.5 -71.5t-68.5 -28.5q-40 0 -63.5 29t-16.5 71zM211 864q6 43 39 72t74 29q39 0 61 -29t16 -72q-6 -41 -38 -69.5t-72 -28.5t-63.5 28t-16.5 70z"/>
<glyph unicode=";" horiz-adv-x="391" d="M-10 -197q41 51 76.5 128t42.5 116q10 62 -13 96q84 23 168 23q10 -36 0 -105q-16 -95 -170 -276zM211 864q6 43 39 72t74 29q39 0 61 -29t16 -72q-6 -41 -38 -69.5t-72 -28.5t-63.5 28t-16.5 70z"/>
<glyph unicode="&lt;" horiz-adv-x="923" d="M156 535l10 65q6 24 18 29l725 354q10 5 31 0l14 -16q7 -12 3 -29t-15 -23l-641 -348q93 -56 281 -173.5t239 -149.5q24 -18 23.5 -40.5t-20.5 -38t-40 -5.5l-616 344q-12 4 -12 31z"/>
<glyph unicode="=" horiz-adv-x="962" d="M115 307l18 119h785l-19 -119h-784zM178 717l19 112h784l-18 -112h-785z"/>
<glyph unicode="&gt;" horiz-adv-x="927" d="M109 201q0 6 4 13.5t10 10.5q122 61 319 166t318 174q-208 147 -529 346q-10 7 -8.5 25t15.5 29q6 5 7.5 6l7.5 5t9.5 5t10 1t12.5 -3q132 -88 612 -356q6 -3 8 -12.5t0 -16.5l-10 -62q-3 -18 -18 -30h2l-88 -43q-62 -30 -303 -143t-341 -164q-17 -9 -26 6h4 q-2 6 -8 21.5t-8 21.5z"/>
<glyph unicode="?" horiz-adv-x="808" d="M221 1063l31 192q72 55 170.5 90t181.5 35q150 0 236 -85.5t63 -233.5q-12 -74 -64 -142t-119 -118t-133.5 -95t-115 -91.5t-55.5 -88.5q-5 -32 8 -53.5t41 -21.5q23 0 65 14l-16 -96q-35 -23 -84 -23q-81 0 -131 51.5t-37 130.5q10 63 48.5 122.5t89 102t108.5 87 t107 80t85 78t43 83.5q28 189 -153 189q-101 0 -208 -58t-161 -149zM258 90q6 40 39 70t74 30t63.5 -29t16.5 -71q-6 -41 -39 -70.5t-74 -29.5q-40 0 -63 29.5t-17 70.5z"/>
<glyph unicode="@" horiz-adv-x="1542" d="M162 668q50 317 279 512.5t554 195.5q171 0 312.5 -89t213 -240t44.5 -322q-14 -84 -46 -166.5t-80 -154t-117.5 -116t-147.5 -44.5q-86 0 -129.5 30t-61.5 93q-38 -42 -96.5 -75.5t-102.5 -33.5q-174 0 -249 110t-46 291q28 171 128.5 280.5t256.5 109.5 q58 0 121.5 -28.5t81.5 -57.5l140 69l-89 -551q-18 -127 64 -127q64 0 120 54.5t92 139t52 183.5q16 105 -15.5 204t-96.5 170.5t-159 115t-198 43.5q-270 0 -472 -169t-245 -433q-20 -131 6 -245.5t91.5 -196t171 -128.5t237.5 -47q93 0 175 28t139 68v-121 q-44 -34 -132.5 -60t-191.5 -26q-157 0 -283 55.5t-204.5 153t-110 233.5t-6.5 292zM647.5 534q5.5 -63 44 -108t103.5 -45q53 0 104 36.5t80 88.5l45 276q8 57 -40.5 105.5t-123.5 48.5q-45 0 -84 -28t-63.5 -71t-40 -87t-21.5 -84q-9 -69 -3.5 -132z"/>
<glyph unicode="A" horiz-adv-x="1185" d="M31 0l745 1366h33l315 -1366h-274q37 14 65 52q20 27 20 61q0 13 -3 28l-47 209h-533l-190 -350h-131zM412 463h446l-131 579z"/>
<glyph unicode="B" horiz-adv-x="1161" d="M41 0q42 24 77 71t42 93l190 1202h510q121 0 208 -85t87 -206q0 -98 -60.5 -185.5t-152.5 -146.5q77 -35 122.5 -118.5t45.5 -173.5q0 -118 -67.5 -223.5t-172 -166.5t-213.5 -61h-616zM305 113h303q79 0 158 43.5t132.5 122t53.5 167.5q0 84 -60.5 151t-143.5 67h-357z M410 776h290q109 0 200 92t91 201q0 83 -55 133.5t-139 50.5h-312z"/>
<glyph unicode="C" horiz-adv-x="1302" d="M190 553q0 65 15 172q30 183 129 330.5t256.5 235t343.5 87.5q113 0 247 -34.5t203 -96.5l-30 -192q-66 105 -181 158t-249 53q-74 0 -148.5 -27t-137 -72.5t-114 -104.5t-86.5 -124q-84 -163 -84 -367q0 -91 24 -174t70 -150.5t122 -108t171 -40.5q149 0 284.5 60.5 t213.5 165.5l-65 -222q-134 -68 -223.5 -92t-229.5 -24q-252 0 -391.5 155.5t-139.5 411.5z"/>
<glyph unicode="D" horiz-adv-x="1286" d="M39 0q42 24 77.5 72t41.5 92l190 1202h477q118 0 209.5 -44t148 -121.5t85 -176.5t28.5 -215q0 -124 -29.5 -241.5t-90 -220.5t-145 -180.5t-201.5 -122t-252 -44.5h-539zM303 113h287q150 0 276.5 96t198.5 257t72 347q0 80 -14 152.5t-45.5 139.5t-91 107.5 t-140.5 40.5h-361z"/>
<glyph unicode="E" horiz-adv-x="1021" d="M133 0l217 1366h766q-25 -156 -33 -203q-32 44 -79.5 67t-147.5 23h-371l-75 -477h505l-32 -203q-56 91 -230 91h-262l-86 -551h615l-21 -113h-766z"/>
<glyph unicode="F" horiz-adv-x="1001" d="M133 0l217 1366h766q-25 -156 -33 -203q-32 44 -79.5 67t-147.5 23h-371l-75 -477h505l-32 -203q-56 91 -230 91h-262l-104 -664h-154z"/>
<glyph unicode="G" horiz-adv-x="1325" d="M203 702q22 141 84.5 264.5t156 215.5t220.5 145t270 53q155 0 271.5 -38t180.5 -89l-30 -194q-45 79 -156 145t-266 66q-113 0 -214 -49t-173.5 -130.5t-121 -183t-65.5 -209.5q-9 -44 -9 -92q0 -18 1 -37q5 -68 17 -134.5t43.5 -127t72.5 -106.5t103.5 -73.5 t136.5 -27.5q113 0 196 36.5t154 115.5l80 373q2 9 2 17q0 67 -100 146h278l-110 -565q-54 -89 -205 -162t-309 -73q-84 0 -157.5 20.5t-128.5 57.5t-100 89t-72 114t-44 133q-17 69 -17 142q0 76 11 158z"/>
<glyph unicode="H" horiz-adv-x="1255" d="M133 0l217 1366h244q-50 -30 -78 -61.5t-35 -81.5l-71 -447h651l94 590h154l-217 -1366h-244q49 29 77 60.5t36 82.5l81 521h-651l-104 -664h-154z"/>
<glyph unicode="I" horiz-adv-x="526" d="M74 0q48 29 76 60.5t36 82.5l195 1223h154l-218 -1366h-243z"/>
<glyph unicode="J" horiz-adv-x="569" d="M-113 -195q23 -4 47 -4l99 19q73 27 117 86q71 96 92 231l174 1102q1 9 1 18q0 28 -14 55q-19 35 -49 54h236l-191 -1202q-30 -191 -141 -316q-62 -71 -152 -108q-80 -32 -162 -32q-11 0 -22 1z"/>
<glyph unicode="K" horiz-adv-x="1136" d="M133 0l217 1366h244q-50 -30 -78 -61.5t-35 -81.5l-88 -557l701 700h159l-563 -563l412 -803h-322q63 35 68 70q2 10 2 21q0 68 -66 194l-209 401l-213 -203l-75 -483h-154z"/>
<glyph unicode="L" horiz-adv-x="1011" d="M133 0l217 1366h154l-199 -1253h344q72 0 155.5 29.5t129.5 72.5l-35 -215h-766z"/>
<glyph unicode="M" horiz-adv-x="1677" d="M133 0l193 1219q1 8 1 16q0 32 -18 70q-23 47 -53 61h250l356 -1096l690 1096h174l-217 -1366h-243q48 29 76 60.5t36 82.5l152 959l-8 4l-693 -1106h-45l-352 1096l-14 -4l-172 -1092h-113z"/>
<glyph unicode="N" horiz-adv-x="1282" d="M133 0l197 1239q1 7 1 15q0 30 -19 58q-24 36 -54 54h209l592 -1112l178 1112h111l-215 -1366h-109l-598 1116l-178 -1116h-115z"/>
<glyph unicode="O" horiz-adv-x="1388" d="M172 692q26 163 94 294t164 216t213 130.5t244 45.5q126 0 231.5 -54.5t175.5 -148.5q69 -95 97 -229q15 -72 16 -150q0 -67 -12 -137q-26 -165 -95.5 -295.5t-167 -211.5t-213 -123.5t-241.5 -42.5q-176 0 -302 90q-127 90 -181 252q-34 103 -34 222q0 68 11 142z M340 713q-15 -94 -15 -174q-1 -171 67 -279q100 -160 313 -160q85 0 170.5 41t157.5 113t125.5 178.5t72.5 229.5q12 61 12 122q0 14 -1 26q-3 74 -15.5 140.5t-44 124t-74.5 100t-106 67t-140 24.5q-113 0 -221.5 -64.5t-192 -193.5t-108.5 -295z"/>
<glyph unicode="P" horiz-adv-x="1064" d="M133 0l193 1219q2 6 2 16q0 36 -20 75t-50 56h502q163 0 273 -90.5t110 -249.5q0 -136 -69.5 -241.5t-183.5 -160.5t-251 -55h-262l-90 -569h-154zM395 682h234q144 0 248 99t104 243q0 110 -71 169.5t-183 59.5h-242z"/>
<glyph unicode="Q" horiz-adv-x="1402" d="M171 423q-11 61 -11 126q0 69 12 143q26 163 94 294t164 216t213 130.5t244 45.5q126 0 231.5 -54.5t175 -148.5t97.5 -229q15 -72 15 -150q0 -66 -11 -137q-23 -150 -82 -271t-143 -202t-184.5 -130t-213.5 -64v-2q-2 -22 -2 -43q0 -86 27 -144q26 -59 79 -85.5 t146 -26.5q-54 -88 -64 -88h-16q-81 0 -152 37q-79 40 -120 112q-27 45 -40 124q-10 58 -10 91q0 12 1 21q-119 11 -214.5 68.5t-154 150t-81.5 216.5zM340 713q-15 -94 -15 -174q0 -169 67 -279q100 -160 313 -160q85 0 170.5 41t157.5 113t125.5 178.5t72.5 229.5 q12 61 12 122q0 13 -1 26q-3 73 -15.5 140t-44 124.5t-74.5 100t-106 67t-140 24.5q-113 0 -221.5 -64.5t-192 -193.5t-108.5 -295z"/>
<glyph unicode="R" horiz-adv-x="1128" d="M133 0l195 1223q1 10 1 20q0 70 -69 123h504q101 0 180 -34t124 -91t63 -130q11 -44 11 -90q0 -31 -5 -63q-26 -162 -129.5 -253t-255.5 -123l276 -582h-186l-262 569h-203l-68 -426q-2 -15 -2 -29q1 -30 13 -52q18 -32 57 -62h-244zM395 682h238q54 0 108 17.5t103 52 t84.5 92t46.5 129.5q5 29 5 56q0 85 -52 145q-68 78 -203 79h-240z"/>
<glyph unicode="S" horiz-adv-x="1093" d="M119 215q1 48 16 111q41 -98 149 -163t234 -65q120 0 223.5 78.5t120.5 179.5q3 17 3 33q0 35 -12 65q-17 44 -53 77t-84.5 62.5t-103 57t-108.5 55.5t-101.5 62.5t-82 75t-50.5 96.5q-9 32 -9 68q0 26 5 53q24 156 159.5 240.5t330.5 84.5q117 0 210.5 -24t192.5 -76 q0 -26 -33 -227q-9 58 -44.5 101t-88 67t-111.5 35.5t-124 11.5q-68 0 -139.5 -27t-126 -77.5t-64.5 -110.5q-2 -13 -3 -26q-1 -36 17 -69q22 -44 66.5 -75t102 -64t119 -62t118.5 -69t99.5 -84t64.5 -109q14 -43 14 -92q0 -25 -4 -51q-13 -91 -61 -163t-119.5 -117 t-157.5 -68.5t-180 -23.5q-122 0 -223 39t-154 81q-8 55 -8 99v10z"/>
<glyph unicode="T" horiz-adv-x="1292" d="M240 1163l32 203h1162l-21 -115h-502l-198 -1251h-244q49 29 77 60.5t36 82.5l176 1108h-314q-52 0 -94 -15.5t-61.5 -30t-48.5 -42.5z"/>
<glyph unicode="U" horiz-adv-x="1220" d="M226 270q-13 65 -12 144q0 86 15 188l121 764h246q-39 -16 -73 -52.5t-40 -74.5l-106 -672q-13 -79 -14 -145v-13q1 -57 9 -101q10 -48 30 -85t47 -60.5t64 -38t77 -20.5t90 -6q139 0 246 126.5t137 310.5l133 831h113l-133 -823q-39 -252 -175.5 -403.5t-341.5 -151.5 q-191 0 -299 73t-134 209z"/>
<glyph unicode="V" horiz-adv-x="1155" d="M217 1366h256q-33 -16 -53 -64q-15 -36 -16 -64q0 -9 2 -17l204 -922l590 1067h129l-751 -1366h-52z"/>
<glyph unicode="W" horiz-adv-x="2004" d="M217 1366h258q-33 -22 -53 -70q-15 -37 -15 -66q0 -9 1 -16l165 -899l543 1051h225q-33 -26 -58 -74q-20 -39 -20 -66q0 -6 1 -12l159 -886l541 1038h131l-711 -1366h-53l-205 1124l-577 -1124h-53z"/>
<glyph unicode="X" horiz-adv-x="1142" d="M23 0l555 666l-338 700h276q-30 -22 -38 -58q-4 -20 -4 -36q0 -15 4 -27q6 -27 18 -53l186 -385l467 559h147l-553 -664l340 -702h-276q42 29 42 83q0 27 -11 60l-201 418l-467 -561h-147z"/>
<glyph unicode="Y" horiz-adv-x="1142" d="M240 1366h252q-36 -27 -36 -73q0 -34 21 -79l221 -499l490 651h141l-590 -786l-92 -580h-153l92 578z"/>
<glyph unicode="Z" horiz-adv-x="1196" d="M92 70l946 1183h-495q-99 0 -153.5 -23t-102.5 -67l32 203h957l8 -53l-958 -1200h772l-19 -113h-981z"/>
<glyph unicode="[" horiz-adv-x="677" d="M104 -18l226 1404h426l-8 -94l-297 -28l-183 -1153l297 -29l-12 -100h-449z"/>
<glyph unicode="\" horiz-adv-x="987" d="M256 1372h135q88 -228 260 -685.5t260 -686.5h-135z"/>
<glyph unicode="]" horiz-adv-x="677" d="M104 -18l17 100l309 29l182 1153l-288 28l20 94h426l-217 -1404h-449z"/>
<glyph unicode="^" horiz-adv-x="923" d="M211 885l483 522l318 -522h-181l-167 293l-269 -293h-184z"/>
<glyph unicode="_" horiz-adv-x="2113" d="M-86 -264l6 43q5 24 27 24h2169q11 0 15.5 -7.5t2.5 -16.5l-6 -43q-2 -9 -9 -17t-18 -8h-2169q-11 0 -15.5 8t-2.5 17z"/>
<glyph unicode="`" horiz-adv-x="866" d="M578 1366h184l229 -274l-121 2z"/>
<glyph unicode="a" d="M137 274q21 135 138.5 221.5t302.5 127.5l229 51q7 33 7 60q0 52 -24 86q-36 52 -124 52t-193 -42.5t-194 -112.5q11 78 34 129q63 52 165.5 95.5t183.5 43.5q68 0 121 -12.5t85.5 -34.5t54.5 -51.5t29 -62.5q8 -34 10 -70q1 -9 0 -18q0 -28 -6 -54l-82 -518 q-1 -9 -1 -19q-1 -33 15 -73q20 -52 50 -72h-244l15 96q-170 -108 -314 -108q-133 2 -206 80q-57 61 -57 152q0 26 5 54zM291 262q-2 -15 -3 -30q0 -49 27 -88q29 -43 95 -43q11 0 22 1q65 7 151.5 35.5t143.5 67.5l55 352l-166 -37q-35 -8 -67 -17.5t-78 -31t-80.5 -47.5 t-63 -68.5t-36.5 -93.5z"/>
<glyph unicode="b" horiz-adv-x="1052" d="M125 6l221 1399l229 82q-26 -32 -58 -101t-38 -106l-57 -367q135 74 256 74q200 0 298 -137q72 -100 72 -253q0 -56 -10 -120q-34 -215 -181 -351t-343 -136q-267 0 -389 16zM297 123q82 -19 233 -19q111 0 216.5 110t132.5 278q10 65 10 118q1 101 -35 165 q-54 97 -192 97q-66 0 -139 -27t-124 -73z"/>
<glyph unicode="c" horiz-adv-x="989" d="M170 510q18 116 68 207.5t121.5 149.5t157 88t179.5 30q113 0 197.5 -30.5t128.5 -65.5l-31 -191q-34 75 -114 125.5t-181 50.5q-131 0 -236 -111.5t-130 -266.5q-10 -64 -10 -118q0 -105 38 -174q58 -104 203 -104q91 0 194.5 37.5t166.5 75.5q-38 -102 -54 -127 q-61 -38 -150.5 -67t-174.5 -29q-203 0 -308 134q-76 97 -76 256q0 60 11 130z"/>
<glyph unicode="d" horiz-adv-x="1062" d="M170 498q36 234 171.5 360.5t336.5 126.5q132 0 244 -72l77 492l230 82q-29 -37 -59 -100t-37 -107l-201 -1272q-165 -18 -410 -18q-194 0 -290 144q-71 107 -71 255q0 52 9 109zM326 469q-7 -47 -7 -88q-1 -107 47 -177q66 -98 177 -98q172 0 254 21l102 645 q-36 46 -101 73t-132 27q-135 0 -222.5 -107t-117.5 -296z"/>
<glyph unicode="e" horiz-adv-x="1062" d="M170 496q38 219 177 354t323 135q198 -1 301 -123q77 -92 77 -239q0 -49 -8 -103l-10 -71h-702q-4 -39 -4 -74q0 -273 237 -273q87 0 201 46t174 88l10 -86q-202 -160 -409 -160q-205 0 -305 136q-72 98 -73 246q0 58 11 124zM342 561h543q4 36 4 68q-1 97 -41 160 q-54 83 -180 83q-113 0 -202 -92t-124 -219z"/>
<glyph unicode="f" horiz-adv-x="710" d="M178 862l17 113h163l39 244q9 57 33 103.5t54.5 76t67.5 49.5t71.5 28.5t68.5 8.5q96 0 152 -33l-27 -178q-17 33 -29 50.5t-36 32.5t-56 15t-58 -14.5t-41 -34t-27 -52.5t-17.5 -57.5t-11.5 -60.5l-29 -178h256l-16 -113h-256l-138 -862h-153l137 862h-164z"/>
<glyph unicode="g" horiz-adv-x="1052" d="M35 -250q0 58 14 137q56 -84 149.5 -126t200.5 -42q38 0 94.5 10t117 29t103 53t42.5 76q0 57 -94 76q-44 7 -130 7h-52q-20 -1 -38 -1q-97 0 -149 11q-85 15 -142 55.5t-57 105.5q0 57 71 116.5t142 90.5q-86 78 -86 223q0 116 62.5 209.5t162 143t213.5 49.5 q29 0 91 -8l86 86q41 41 112.5 70.5t130.5 29.5l-28 -186q-36 28 -78 28q-74 0 -144 -59q72 -37 112 -108.5t40 -153.5q0 -115 -61 -208t-158 -143t-207 -51q-76 0 -141 23q-43 -10 -105.5 -50.5t-62.5 -74.5q0 -30 137 -41q35 -4 108 -4q21 0 47 1h32q83 0 122 -7 q99 -14 165.5 -63.5t66.5 -137.5q0 -71 -37 -127t-93.5 -89.5t-130.5 -56t-140 -30.5t-130 -8q-85 0 -181.5 24t-168.5 64q-8 24 -8 57zM377 569q0 -85 48.5 -134.5t133.5 -49.5q118 0 192 79t74 198q0 89 -51.5 143.5t-138.5 54.5q-112 0 -185 -88.5t-73 -202.5z"/>
<glyph unicode="h" horiz-adv-x="1050" d="M133 0l223 1405l230 82q-30 -38 -59 -95t-33 -92l-62 -385q193 70 299 70q148 1 218 -77q54 -60 55 -146q0 -24 -5 -51l-112 -711h-154l111 692q3 18 3 35q0 23 -5 45q-8 40 -39 71t-82 31q-63 0 -149.5 -23.5t-157.5 -55.5l-127 -795h-154z"/>
<glyph unicode="i" horiz-adv-x="501" d="M174 0l148 932l229 82q-28 -38 -57 -95t-35 -92l-131 -827h-154zM360 1292q6 40 37.5 68.5t71.5 28.5q40 -1 64 -29q19 -23 19 -52q0 -8 -1 -16q-6 -39 -38.5 -66.5t-72.5 -27.5t-63 27q-18 21 -18 51q0 8 1 16z"/>
<glyph unicode="j" horiz-adv-x="548" d="M-164 -319q12 -1 23 -1q270 0 323 316l150 936l229 82q-28 -38 -57 -95t-35 -92l-131 -827q-20 -125 -89.5 -220.5t-168.5 -145.5t-211 -50zM371 1292q6 40 37.5 68.5t70.5 28.5q40 0 64 -29q19 -22 19 -52q0 -8 -1 -16q-6 -40 -38 -67t-72 -27t-63 27q-18 21 -18 51 q0 8 1 16z"/>
<glyph unicode="k" horiz-adv-x="1034" d="M123 0l223 1405l229 82q-30 -38 -59 -95t-33 -92l-106 -673l512 348h192l-495 -340l356 -635h-178l-305 545l-109 -74l-74 -471h-153z"/>
<glyph unicode="l" horiz-adv-x="483" d="M160 0l223 1405l229 82q-30 -38 -59 -95t-33 -92l-207 -1300h-153z"/>
<glyph unicode="m" horiz-adv-x="1615" d="M133 0l119 750q1 6 1 12q-1 30 -25 66q-30 42 -62 46q4 0 73.5 30t136.5 60l68 31l-12 -80q162 70 297 70q91 0 151.5 -26t84.5 -70q200 96 360 96q149 0 221 -78q57 -62 57 -148q0 -23 -4 -48l-112 -711h-154l111 692q6 28 0.5 60t-16.5 59t-38.5 45t-66.5 18 q-68 0 -168.5 -26t-157.5 -55q5 -12 5 -38t-3 -44l-112 -711h-154l111 692q6 28 0.5 60t-16.5 59t-38.5 45t-66.5 18q-62 0 -149.5 -24t-159.5 -55l-127 -795h-154z"/>
<glyph unicode="n" horiz-adv-x="1032" d="M133 0l119 750q1 6 1 12q-1 30 -25 66q-30 42 -62 46l278 121l-12 -80q165 70 299 70q148 1 218 -77q54 -60 55 -146q0 -24 -5 -51l-112 -711h-154l111 692q3 19 3 38q0 22 -4 42q-7 38 -37 69t-81 31q-131 0 -311 -77l-127 -795h-154z"/>
<glyph unicode="o" horiz-adv-x="1075" d="M168 492q19 120 69 215t120 155t154 91.5t177 31.5q200 0 304 -133q77 -98 77 -256q0 -58 -10 -123q-18 -119 -70.5 -214t-125 -152t-156.5 -87t-172 -30q-90 0 -165 33t-127 94.5t-73 158.5q-11 51 -11 108q0 51 9 108zM328 498q-10 -63 -10 -117q0 -107 40 -177 q60 -104 193 -104q49 0 103 23.5t104.5 67.5t89.5 117.5t53 162.5q12 73 12 133q0 268 -243 268q-113 0 -213.5 -99.5t-128.5 -274.5z"/>
<glyph unicode="p" horiz-adv-x="1071" d="M68 -410l184 1160q1 6 1 12q0 31 -25 64q-30 39 -64 42l280 127l-12 -82q131 72 254 72q200 0 300 -137q73 -100 73 -253q0 -56 -10 -118q-34 -215 -175.5 -351t-330.5 -136q-106 0 -252 37l-70 -437h-153zM311 158q4 -1 26.5 -10t33 -12.5t35.5 -11t44 -11t46.5 -6.5 t54.5 -3q101 0 206.5 111.5t131.5 276.5q11 69 11 125q0 255 -222 255q-67 0 -142 -27t-126 -73z"/>
<glyph unicode="q" horiz-adv-x="1075" d="M170 498q36 236 176.5 361.5t360.5 125.5q188 0 376 -16l-180 -1143q-2 -12 -2 -24q0 -36 21 -64q28 -37 71 -37l-284 -131l75 477q-138 -57 -266 -57q-188 0 -286 143q-71 105 -71 253q0 53 9 112zM326 469q-7 -46 -7 -88q0 -105 47 -177q67 -100 169 -100q133 0 270 72 l106 676q-106 16 -225 16q-138 0 -234.5 -107t-125.5 -292z"/>
<glyph unicode="r" horiz-adv-x="688" d="M135 0l154 975h151l-16 -109q103 70 145 89q71 32 152 32q5 0 16.5 -1t16.5 -1l-31 -203q-13 14 -37.5 27.5t-42.5 13.5q-61 0 -130 -32.5t-114 -77.5l-112 -713h-152z"/>
<glyph unicode="s" horiz-adv-x="897" d="M119 63l8 183q63 -64 143 -105t162 -41q49 0 102.5 23.5t92.5 67.5t39 96q0 61 -60 98q-32 19 -93.5 45t-112.5 49.5t-102 55.5t-80.5 78t-29.5 102q0 54 25 100t65.5 76.5t92 52t103.5 31.5t101 10q80 0 167 -20.5t141 -61.5l-27 -162q-51 64 -129.5 98.5t-163.5 34.5 q-71 0 -141 -38.5t-70 -102.5q0 -42 35.5 -75t88.5 -54t114.5 -48.5t114.5 -56.5t88.5 -80.5t35.5 -117.5q0 -65 -24.5 -118.5t-64.5 -88.5t-94 -59t-111 -34.5t-117 -10.5q-134 0 -299 73z"/>
<glyph unicode="t" horiz-adv-x="710" d="M176 862l19 113h163l39 242l232 81q-29 -37 -58.5 -94t-35.5 -92l-23 -137h258l-18 -113h-256l-80 -500q-7 -41 -7 -76q0 -92 46 -142q63 -68 213 -70l-66 -97q-181 0 -278 90q-75 69 -75 195q0 38 7 80l84 520h-164z"/>
<glyph unicode="u" horiz-adv-x="1024" d="M162 868l282 127l-114 -721q-3 -18 -3 -35q0 -22 5 -45q9 -40 40.5 -71t82.5 -31q106 0 305 80l127 803h153l-153 -975h-154l8 51q-168 -69 -297 -69q-150 0 -220 78q-55 60 -54 145q0 24 4 51l80 508q1 4 1 8q0 25 -25 56q-29 36 -68 40z"/>
<glyph unicode="v" horiz-adv-x="995" d="M190 975h160l168 -725l318 545q25 48 25 88q0 11 -2 21q-8 48 -44 71h252l-557 -975h-88z"/>
<glyph unicode="w" horiz-adv-x="1617" d="M190 975h158l168 -725l318 545q24 47 24 87q0 11 -2 21q-8 48 -45 72h195l168 -725l317 545q24 47 24 87q1 11 -1 21q-8 48 -46 72h256l-557 -975h-88l-166 705l-403 -705h-88z"/>
<glyph unicode="x" horiz-adv-x="1054" d="M70 0q199 216 432 473l-289 502h266q-28 -21 -28 -58q0 -43 38 -106l123 -209l336 373h150l-426 -469l295 -506h-295q29 18 35.5 50.5t-2 62.5t-25.5 61l-117 203l-342 -377h-151z"/>
<glyph unicode="y" horiz-adv-x="987" d="M141 -410l265 471l-216 914h160l168 -725l311 534q26 49 26 94q0 10 -1 20q-7 54 -43 77h258l-790 -1385h-138z"/>
<glyph unicode="z" horiz-adv-x="966" d="M92 70l631 792h-285q-138 0 -207 -82l31 195h694l9 -53l-643 -809h491l-20 -113h-695z"/>
<glyph unicode="{" horiz-adv-x="618" d="M121 592l16 100l64 2q71 12 110 56t47 110l39 340q5 44 22.5 91.5t45.5 90.5t70.5 71t89.5 28q22 0 45 -4t51.5 -10t46.5 -9l-25 -82q-16 0 -26 1t-12 1q-65 0 -112 -34t-58 -105q-26 -177 -29 -203q-18 -153 -29 -219q-5 -33 -8.5 -47.5t-13 -42t-27 -49t-43.5 -41.5 q35 -39 41.5 -69.5t-6.5 -121.5l-76 -407q-14 -79 25.5 -110t107.5 -27l39 2l-6 -84q-77 -23 -145 -23q-53 0 -87 26.5t-48 65.5t-16 90.5t3.5 94t15.5 84.5q35 139 56 270q24 141 -105 164h-63z"/>
<glyph unicode="|" horiz-adv-x="485" d="M139 -174q2 3 277 1753h116l-276 -1753h-117z"/>
<glyph unicode="}" horiz-adv-x="626" d="M18 -180l23 84l35 -2q69 -4 118.5 27t59.5 110l55 407q10 86 27 119t65 72q-25 27 -34 60.5t-8 56.5t8 63q11 66 38 203.5t39 218.5q11 71 -24.5 105t-100.5 34q-2 0 -14.5 -1t-28.5 -1l5 82q17 3 48 9.5t56 10t47 3.5q47 0 80.5 -28.5t46.5 -70.5t17 -91t-7 -91 l-67 -340q-14 -66 11 -110t93 -56l64 -2l-17 -100h-63q-134 -22 -158 -164q-21 -134 -31 -270q-4 -54 -6 -64q-7 -48 -22.5 -95t-43 -95t-72.5 -77.5t-101 -29.5q-30 0 -64.5 5.5t-53.5 11.5z"/>
<glyph unicode="~" horiz-adv-x="1052" d="M236 1012q18 35 26 49.5t32.5 55.5t41 63.5t44.5 56.5t52 52t55 32t60 14q50 0 94 -19t75 -46.5t58.5 -55t57 -46.5t59.5 -19q71 0 203 172q8 -5 31.5 -13.5t29.5 -11.5q-143 -303 -317 -303q-49 0 -97.5 30.5t-80.5 67t-68.5 67t-63.5 30.5q-47 0 -122 -72t-113 -135 q-8 5 -30 16t-27 15z"/>
<glyph unicode="¡" horiz-adv-x="434" d="M80 -135l194 989h107l-119 -862q-4 -38 14.5 -73.5t49.5 -53.5h-246zM276 1143q8 43 38.5 71.5t68.5 28.5q40 0 63.5 -29t16.5 -71q-6 -40 -39 -69.5t-72 -29.5q-38 0 -60 29.5t-16 69.5z"/>
<glyph unicode="¢" horiz-adv-x="870" d="M229 715q26 160 144.5 261t263.5 101h10l86 250q64 30 115 37l-105 -301q112 -35 150 -135q-49 -74 -98 -94q-26 85 -88 120l-181 -522q10 -2 35 -2q40 0 103.5 21t103.5 45q9 -19 27 -58q-48 -47 -128 -80.5t-149 -33.5h-29l-110 -324h-100l118 344q-99 35 -143.5 136 t-24.5 235zM354 713q-28 -188 82 -254l174 516q-86 -4 -164 -87t-92 -175z"/>
<glyph unicode="£" horiz-adv-x="1116" d="M113 84q57 46 115.5 136t72.5 181l35 215h-180l16 107h180l54 342q22 134 109.5 220t203.5 91q70 3 125.5 -20t75.5 -56l-35 -92q-47 54 -166 54q-61 0 -110.5 -69t-63.5 -163l-49 -307h198l-16 -107h-199l-43 -266q-11 -75 -40.5 -132.5t-61.5 -84.5h618 q-16 -78 -61 -133h-772z"/>
<glyph unicode="¥" horiz-adv-x="1167" d="M203 297l16 104h318l30 168h-321l16 101h266l-295 645q-9 15 -1 33t28 18h150l280 -647l484 647h104q18 0 21.5 -15t-7.5 -34l-506 -647h285l-16 -101h-330l-27 -168h330l-16 -104h-330l-47 -297h-168l51 297h-315z"/>
<glyph unicode="¦" horiz-adv-x="438" d="M139 -174l121 768h137l-121 -768h-137zM295 811l121 768h137l-121 -768h-137z"/>
<glyph unicode="§" horiz-adv-x="966" d="M174 143q5 38 45 84q36 -53 119 -89t166 -36q43 0 87 11t80 36.5t42 61.5q9 53 -11 91.5t-63 57.5q-46 20 -153.5 42.5t-161.5 52.5q-60 35 -84.5 86.5t-12.5 132.5q10 63 37 112.5t63.5 81.5t84.5 52q-44 22 -67 80.5t-13 129.5q18 110 125 176t239 66q94 0 178 -21 t121 -63q12 -15 13.5 -36t-6 -41.5t-18 -39t-23.5 -32.5q-18 26 -50 49.5t-70 40t-81.5 26t-83.5 9.5q-43 0 -87 -11t-80 -36.5t-42 -61.5q-13 -86 80 -137q46 -25 162 -54t163 -59q57 -35 74 -82.5t4 -132.5q-25 -177 -186 -246q1 0 3 -1t3 -1q42 -25 65.5 -81t12.5 -123 q-12 -76 -68.5 -132.5t-134 -84t-162.5 -27.5q-94 0 -177.5 21.5t-119.5 60.5q-18 18 -12 67zM373 682q-12 -82 52.5 -122t158.5 -40q39 0 85 17t88 55.5t50 89.5q12 83 -53 123.5t-160 40.5q-39 0 -85 -17t-87.5 -56t-48.5 -91z"/>
<glyph unicode="¨" horiz-adv-x="954" d="M414 1278q6 40 37 68t71 28t64 -28t18 -68t-38 -67t-72 -27t-63 27t-17 67zM791 1278q6 40 37 68t71 28t64 -28t18 -68q-6 -39 -38.5 -66.5t-72.5 -27.5t-62.5 27t-16.5 67z"/>
<glyph unicode="©" horiz-adv-x="1411" d="M168 662q26 167 131.5 309t261 224.5t322.5 82.5t295.5 -82.5t188.5 -224.5t34 -309t-131 -309.5t-260 -225t-322 -82.5t-296 82.5t-189.5 225t-34.5 309.5zM242 659q-17 -109 10 -209.5t88.5 -173t155.5 -116t204 -43.5q146 0 282.5 73t229 198t115.5 271 q23 147 -30 272t-166 198t-259 73q-147 0 -284 -73t-230 -198t-116 -272zM469 664q22 139 129.5 245.5t235.5 106.5q28 0 67 -5.5t76.5 -15t62.5 -23.5t23 -30l-8 -55q-2 -9 -7.5 -16t-11.5 -7q-10 2 -18 6q-19 28 -71.5 49t-121.5 21q-89 0 -165.5 -70.5t-94.5 -187.5 q-24 -154 30.5 -238t143.5 -84q119 0 203 72q7 10 19 10q21 0 14 -45q-5 -24 -7.5 -33.5t-7 -16.5t-12.5 -9q-42 -19 -66.5 -28.5t-66.5 -17t-92 -7.5q-136 0 -208.5 104.5t-45.5 274.5z"/>
<glyph unicode="ª" horiz-adv-x="798" d="M260 1059q22 139 115 230t227 91q72 0 133 -57q53 58 119 66l-72 -457q-11 -65 49 -129q-56 -43 -104 -49h-2q-22 11 -45 67q-40 -34 -89 -52.5t-91 -18.5q-132 0 -197 86.5t-43 222.5zM381 1077q-17 -113 27.5 -166t123.5 -53q38 0 77.5 19t68.5 57l37 231 q-3 51 -41.5 83t-95.5 32q-68 0 -124 -54t-73 -149z"/>
<glyph unicode="«" horiz-adv-x="1116" d="M178 438l21 123l520 318l37 -50l-414 -325l299 -352l-51 -48zM563 438l21 123l520 318l37 -50l-414 -325l299 -352l-51 -48z"/>
<glyph unicode="¬" horiz-adv-x="980" d="M205 844l20 131h805l-98 -627l-146 2l78 494h-659z"/>
<glyph unicode="­" horiz-adv-x="759" d="M174 504l19 119h542l-18 -119h-543z"/>
<glyph unicode="®" horiz-adv-x="1411" d="M164 662q26 167 131.5 309t261 224.5t322.5 82.5t295.5 -82.5t188.5 -224.5t34 -309t-131 -309.5t-260 -225t-322 -82.5t-296 82.5t-189.5 225t-34.5 309.5zM238 659q-17 -109 10 -209.5t88.5 -173t155.5 -116t204 -43.5q146 0 282.5 73t229 198t115.5 271 q23 147 -30 272t-166 198t-259 73q-147 0 -284 -73t-230 -198t-116 -272zM516 311l111 703h250q90 0 128.5 -55t26.5 -132q-11 -71 -63.5 -128.5t-124.5 -69.5q35 -115 127 -285q-1 -2 0 -8t0 -8q0 -7 -4 -12t-9 -5h-71q-15 0 -19 15l-120 295q-26 0 -54 4q-4 0 -13.5 1 t-12.5 1h-11l-51 -316h-90zM668 700q64 -9 139 -6q41 3 85 42t52 91q8 50 -22.5 80.5t-87.5 30.5h-127z"/>
<glyph unicode="¯" d="M377 1239l20 127h670l-20 -127h-670z"/>
<glyph unicode="°" horiz-adv-x="712" d="M260 1120q18 114 99.5 189t205.5 75q117 0 179 -76.5t44 -187.5q-20 -115 -102 -189.5t-205 -74.5q-120 0 -180 75.5t-41 188.5zM371 1120q-12 -73 23 -122.5t102 -49.5q65 0 116.5 49.5t63.5 122.5q11 72 -24.5 122t-100.5 50q-67 0 -118 -50t-62 -122z"/>
<glyph unicode="±" horiz-adv-x="1097" d="M119 53l20 127h838l-21 -127h-837zM227 616l21 127h354l53 336h109l-53 -336h356l-20 -127h-357l-53 -335h-109l54 335h-355z"/>
<glyph unicode="²" horiz-adv-x="765" d="M209 618l319 295l35 35v-2q61 55 139 125q19 123 9 158q-15 19 -21.5 26.5t-22 20t-32.5 18.5q-113 0 -256 -49q-30 -53 -36 -52q-8 0 -6 92q1 6 1 18q75 52 186 79q63 0 88 -0.5t64 -5.5t69 -16q26 -26 40 -41t32.5 -41.5t30.5 -54.5l-12 -70q-7 -41 -21 -74.5 t-40.5 -66.5t-48 -54.5t-64.5 -60.5l-27 -25q-42 -38 -84.5 -78t-94 -88.5t-83.5 -78.5h377q-3 0 -15 -90h-499q-11 16 -19 41q-5 22 -8 40z"/>
<glyph unicode="³" horiz-adv-x="712" d="M190 608l5 133q55 -53 109.5 -84.5t123.5 -31.5q79 0 135.5 46.5t69.5 135.5q9 61 -16.5 97.5t-65.5 51.5h-143q-18 0 -25.5 16t-5.5 29q0 12 12.5 30t34.5 18h143q39 6 74.5 45.5t44.5 91.5q7 54 -27.5 83t-97.5 29q-53 0 -134 -34t-112 -90l4 133q125 79 263 79 q114 0 175 -55t48 -147q-10 -61 -51 -106.5t-92 -71.5q44 -30 73.5 -79.5t20.5 -115.5q-12 -70 -49 -126t-87.5 -88t-104 -48.5t-105.5 -16.5q-120 0 -220 76z"/>
<glyph unicode="´" horiz-adv-x="1028" d="M539 1092l319 274h172l-379 -272z"/>
<glyph unicode="µ" horiz-adv-x="1024" d="M63 -410l218 1360q24 18 70 32.5t81 14.5l-119 -733q-2 -52 34.5 -91.5t96.5 -39.5t138.5 47t191.5 144l98 624q53 34 148 47l-119 -753q-13 -82 70 -187q-62 -51 -129 -61q-29 16 -58.5 69.5t-33.5 108.5l-23 -20q-96 -81 -166.5 -121.5t-148.5 -40.5q-76 0 -133 51 l-72 -451h-144z"/>
<glyph unicode="¶" horiz-adv-x="1243" d="M231 940q13 80 54.5 155.5t105 136.5t153.5 97.5t191 36.5h611q23 -38 8 -143q-70 20 -119 20h-31l-196 -1243h-117l196 1243h-139l-196 -1243h-119l86 539q-103 -25 -141 -25q-86 0 -156 27t-119 78.5t-68.5 134t-3.5 186.5zM383 932q-22 -142 49 -220.5t184 -78.5 q64 0 121 24l90 576h-90q-133 0 -233 -88t-121 -213z"/>
<glyph unicode="·" horiz-adv-x="403" d="M180 520q6 40 39.5 69t73.5 29q38 0 59 -29t15 -69q-6 -43 -36.5 -71.5t-68.5 -28.5q-40 0 -64 29t-18 71z"/>
<glyph unicode="¸" horiz-adv-x="940" d="M266 -297l43 49q74 -22 127 -22q112 0 123 73q4 28 -19.5 44t-62.5 16q-22 0 -60 -6.5t-65 -13.5l-28 -7l-21 37q154 152 156 152l33 -15l-97 -102q68 26 109 26q23 0 43 -1.5t50 -9t50 -20t32.5 -38t6.5 -60.5t-25 -62.5t-44.5 -44t-58 -27t-61 -14t-57.5 -3.5 q-36 0 -79.5 12t-68.5 24z"/>
<glyph unicode="¹" horiz-adv-x="438" d="M256 1110q90 100 221 279l55 -31l-131 -830h-114l94 592q-83 -87 -96 -100z"/>
<glyph unicode="º" horiz-adv-x="761" d="M262 1073q21 134 111 222.5t225 88.5q127 0 193 -89.5t45 -221.5q-21 -133 -111 -221t-225 -88q-129 0 -194 89t-44 220zM385 1085q-14 -85 24 -148t109 -63t126 54t67 137q14 86 -23 148.5t-106 62.5q-72 0 -128 -53.5t-69 -137.5z"/>
<glyph unicode="»" horiz-adv-x="1116" d="M141 152l410 352l-311 325l53 50l418 -318l-17 -123l-518 -334zM526 152l410 352l-311 325l53 50l418 -318l-17 -123l-518 -334z"/>
<glyph unicode="¼" horiz-adv-x="1464" d="M182 0l1016 1366h135l-1016 -1366h-135zM256 1110q90 100 221 279l55 -31l-131 -830h-114l94 592q-83 -87 -96 -100zM807 319l426 523h129l-78 -500h100l-18 -115h-100l-37 -227h-117l37 229q-50 0 -154 1t-153 1zM934 342h233l54 342q-43 -51 -137.5 -163t-149.5 -179z "/>
<glyph unicode="½" horiz-adv-x="1531" d="M182 0l1016 1366h135l-1016 -1366h-135zM256 1110q90 100 221 279l55 -31l-131 -830h-114l94 592q-83 -87 -96 -100zM893 82q27 25 157 145t199 185v-2q32 29 49 45.5t43 45t40 56t18 55.5q11 60 -25 105q-27 41 -90 41q-64 0 -148.5 -36.5t-115.5 -90.5l2 135 q55 38 130.5 59t147.5 21q106 0 171.5 -63.5t50.5 -166.5q-5 -33 -17.5 -63.5t-24.5 -51t-39 -50t-41.5 -43.5t-51.5 -48l-29 -26v2q-47 -43 -131 -123t-131 -123h377l-15 -90h-499q-18 28 -21 59z"/>
<glyph unicode="¾" horiz-adv-x="1536" d="M190 608l5 133q55 -53 109.5 -84.5t123.5 -31.5q79 0 135.5 46.5t69.5 135.5q9 61 -16.5 97.5t-65.5 51.5h-143q-18 0 -25.5 16t-5.5 29q0 12 12.5 30t34.5 18h143q39 6 74.5 45.5t44.5 91.5q7 54 -27.5 83t-97.5 29q-53 0 -134 -34t-112 -90l4 133q125 79 263 79 q114 0 175 -55t48 -147q-10 -61 -51 -106.5t-92 -71.5q44 -30 73.5 -79.5t20.5 -115.5q-12 -70 -49 -126t-87.5 -88t-104 -48.5t-105.5 -16.5q-120 0 -220 76zM326 0l1015 1366h136l-1016 -1366h-135zM889 319l426 523h129l-78 -500h100l-18 -115h-100l-37 -227h-117l37 229 q-50 0 -154 1t-153 1zM1016 342h233l54 342q-43 -51 -137.5 -163t-149.5 -179z"/>
<glyph unicode="¿" horiz-adv-x="808" d="M68 197q10 63 49 121.5t90.5 101.5t110.5 86t109 77t86 73t42 75q5 32 -8 54t-41 22q-24 0 -66 -14l19 96q12 9 36.5 15.5t45.5 6.5q80 0 131 -51t39 -131q-12 -75 -64 -143t-118 -118.5t-131.5 -97t-114 -96.5t-56.5 -98q-28 -188 154 -188q101 0 208 58t161 149 l-31 -193q-72 -55 -170.5 -90t-181.5 -35q-150 0 -236 86t-63 234zM520 1167q6 42 39 71.5t74 29.5q40 0 63 -30t17 -71q-6 -40 -39 -70t-74 -30t-63.5 29t-16.5 71z"/>
<glyph unicode="À" horiz-adv-x="1185" d="M31 0l745 1366h33l315 -1366h-274q37 15 65 52.5t17 88.5l-47 209h-533l-190 -350h-131zM412 463h446l-131 579zM490 1747h184l229 -274l-121 2z"/>
<glyph unicode="Á" horiz-adv-x="1185" d="M31 0l745 1366h33l315 -1366h-274q37 15 65 52.5t17 88.5l-47 209h-533l-190 -350h-131zM412 463h446l-131 579zM695 1483l319 274h172l-379 -272z"/>
<glyph unicode="Â" horiz-adv-x="1185" d="M31 0l745 1366h33l315 -1366h-274q37 15 65 52.5t17 88.5l-47 209h-533l-190 -350h-131zM412 463h446l-131 579zM532 1446l324 353l213 -353h-121l-113 199l-180 -199h-123z"/>
<glyph unicode="Ã" horiz-adv-x="1185" d="M31 0l745 1366h33l315 -1366h-274q37 15 65 52.5t17 88.5l-47 209h-533l-190 -350h-131zM412 463h446l-131 579zM465 1481q11 52 38 105t72 92.5t93 39.5q44 0 87.5 -21t73 -46.5t63.5 -46.5t60 -21q28 0 60 36.5t49 88.5l57 -18q-18 -81 -75 -152.5t-132 -71.5 q-45 0 -97.5 32t-96.5 63.5t-66 31.5q-42 0 -78.5 -35.5t-50.5 -99.5q-6 4 -30.5 12.5t-26.5 10.5z"/>
<glyph unicode="Ä" horiz-adv-x="1185" d="M31 0l745 1366h33l315 -1366h-274q37 15 65 52.5t17 88.5l-47 209h-533l-190 -350h-131zM412 463h446l-131 579zM537 1575q6 40 37 68t71 28t64 -28t18 -68t-38 -67t-72 -27t-63 27t-17 67zM914 1575q6 40 37 68t71 28t64 -28t18 -68q-6 -39 -38.5 -66.5t-72.5 -27.5 t-62.5 27t-16.5 67z"/>
<glyph unicode="Å" horiz-adv-x="1185" d="M31 0l745 1366h33l315 -1366h-274q37 15 65 52.5t17 88.5l-47 209h-533l-190 -350h-131zM412 463h446l-131 579zM659 1608q11 76 71.5 128t152.5 52q86 0 131.5 -52.5t34.5 -127.5q-13 -78 -73 -130.5t-151 -52.5q-88 0 -133 53t-33 130zM756 1610q-7 -43 16 -71t66 -28 q41 0 74 28t40 71q6 38 -18.5 66t-65.5 28q-42 0 -74 -27.5t-38 -66.5z"/>
<glyph unicode="Æ" horiz-adv-x="1826" d="M41 0l1153 1368l2 -2v2h711l-29 -184q-16 8 -39 24.5t-37.5 22.5t-59 12t-118.5 6h-297l-96 -608h495l-20 -117h-494l-65 -409h289q203 0 286 71l-28 -186h-715l84 524h-430l-443 -524h-149zM731 643h350l86 543z"/>
<glyph unicode="Ç" horiz-adv-x="1302" d="M190 553q0 65 15 172q30 183 129 330.5t256.5 235t343.5 87.5q113 0 247 -34.5t203 -96.5l-30 -192q-66 105 -181 158t-249 53q-145 0 -279 -95.5t-207 -232.5q-84 -163 -84 -367q0 -91 24 -174t70 -150.5t122 -108t171 -40.5q149 0 284.5 60.5t213.5 165.5l-65 -222 q-134 -68 -223.5 -92t-229.5 -24q-252 0 -391.5 155.5t-139.5 411.5zM469 -301l43 49q74 -22 127 -22q112 0 123 73q4 28 -19.5 44t-62.5 16q-22 0 -60 -6.5t-66 -13.5l-27 -7l-21 37q154 152 156 152l33 -15l-97 -102q68 26 109 26q23 0 43 -1.5t50 -9t50 -20t32.5 -38 t6.5 -60.5t-25 -62.5t-44.5 -44t-58 -27t-61 -14t-57.5 -3.5q-36 0 -79.5 12t-69.5 24z"/>
<glyph unicode="È" horiz-adv-x="1021" d="M133 0l217 1366h766q-25 -156 -33 -203q-32 44 -79.5 67t-147.5 23h-371l-75 -477h505l-32 -203q-56 91 -230 91h-262l-86 -551h615l-21 -113h-766zM471 1757h184l230 -274l-121 2z"/>
<glyph unicode="É" horiz-adv-x="1021" d="M133 0l217 1366h766q-25 -156 -33 -203q-32 44 -79.5 67t-147.5 23h-371l-75 -477h505l-32 -203q-56 91 -230 91h-262l-86 -551h615l-21 -113h-766zM600 1469l319 274h172l-379 -272z"/>
<glyph unicode="Ê" horiz-adv-x="1021" d="M133 0l217 1366h766q-25 -156 -33 -203q-32 44 -79.5 67t-147.5 23h-371l-75 -477h505l-32 -203q-56 91 -230 91h-262l-86 -551h615l-21 -113h-766zM475 1473l324 352l213 -352h-121l-113 198l-180 -198h-123z"/>
<glyph unicode="Ë" horiz-adv-x="1021" d="M133 0l217 1366h766q-25 -156 -33 -203q-32 44 -79.5 67t-147.5 23h-371l-75 -477h505l-32 -203q-56 91 -230 91h-262l-86 -551h615l-21 -113h-766zM455 1620q6 40 37 68t71 28t64 -28t18 -68t-38 -67t-72 -27t-63 27t-17 67zM832 1620q6 40 37 68t71 28t64 -28t18 -68 q-6 -39 -38.5 -66.5t-72.5 -27.5t-62.5 27t-16.5 67z"/>
<glyph unicode="Ì" horiz-adv-x="526" d="M74 0q48 29 76 60.5t36 82.5l195 1223h154l-218 -1366h-243zM154 1745h184l229 -275l-121 3z"/>
<glyph unicode="Í" horiz-adv-x="526" d="M74 0q48 29 76 60.5t36 82.5l195 1223h154l-218 -1366h-243zM387 1491l319 274h172l-379 -272z"/>
<glyph unicode="Î" horiz-adv-x="526" d="M74 0q48 29 76 60.5t36 82.5l195 1223h154l-218 -1366h-243zM207 1470l323 353l213 -353h-120l-113 199l-180 -199h-123z"/>
<glyph unicode="Ï" horiz-adv-x="526" d="M74 0q48 29 76 60.5t36 82.5l195 1223h154l-218 -1366h-243zM213 1602q6 40 37 68t71 28t64 -28t18 -68t-38 -67t-72 -27t-63 27t-17 67zM590 1602q6 40 37 68t71 28t64 -28t18 -68q-6 -39 -38.5 -66.5t-72.5 -27.5t-62.5 27t-16.5 67z"/>
<glyph unicode="Ð" horiz-adv-x="1302" d="M82 0q36 19 74 68t45 96l78 493h-152l18 119h152l94 590h469q176 0 293 -88t160.5 -242t11.5 -354q-22 -141 -82.5 -264t-152 -216.5t-221 -147.5t-279.5 -54h-508zM346 113h316q99 0 206.5 75.5t190.5 209t108 286.5q22 140 -8 270.5t-107 214.5t-184 84h-342l-75 -477 h319l-18 -119h-320z"/>
<glyph unicode="Ñ" horiz-adv-x="1282" d="M133 0l197 1239q6 37 -18 73.5t-54 53.5h209l592 -1112l178 1112h111l-215 -1366h-109l-598 1116l-178 -1116h-115zM541 1493q17 85 74.5 161t127.5 76q44 0 88 -21t73.5 -46.5t63.5 -46.5t60 -21q28 0 60 36.5t49 88.5l57 -18q-18 -81 -75 -152.5t-132 -71.5 q-45 0 -97.5 32t-96.5 63.5t-66 31.5q-42 0 -78.5 -35.5t-50.5 -99.5q-6 4 -30.5 12.5t-26.5 10.5z"/>
<glyph unicode="Ò" horiz-adv-x="1388" d="M172 692q26 163 94 294t164 216t213 130.5t244 45.5q126 0 231.5 -54.5t175 -148.5t97.5 -228.5t4 -287.5q-26 -165 -95.5 -295.5t-167 -211.5t-213 -123.5t-241.5 -42.5q-176 0 -302.5 90.5t-180.5 252t-23 363.5zM340 713q-47 -292 52.5 -452.5t312.5 -160.5 q85 0 170.5 41t157.5 113t125.5 178.5t72.5 229.5q14 74 11 147.5t-15.5 140.5t-44 124.5t-74.5 100t-106 67t-140 24.5q-113 0 -221.5 -64.5t-192 -193.5t-108.5 -295zM586 1751h184l229 -274l-121 2z"/>
<glyph unicode="Ó" horiz-adv-x="1388" d="M172 692q26 163 94 294t164 216t213 130.5t244 45.5q126 0 231.5 -54.5t175 -148.5t97.5 -228.5t4 -287.5q-26 -165 -95.5 -295.5t-167 -211.5t-213 -123.5t-241.5 -42.5q-176 0 -302.5 90.5t-180.5 252t-23 363.5zM340 713q-47 -292 52.5 -452.5t312.5 -160.5 q85 0 170.5 41t157.5 113t125.5 178.5t72.5 229.5q14 74 11 147.5t-15.5 140.5t-44 124.5t-74.5 100t-106 67t-140 24.5q-113 0 -221.5 -64.5t-192 -193.5t-108.5 -295zM797 1481l319 274h172l-379 -272z"/>
<glyph unicode="Ô" horiz-adv-x="1388" d="M172 692q26 163 94 294t164 216t213 130.5t244 45.5q126 0 231.5 -54.5t175 -148.5t97.5 -228.5t4 -287.5q-26 -165 -95.5 -295.5t-167 -211.5t-213 -123.5t-241.5 -42.5q-176 0 -302.5 90.5t-180.5 252t-23 363.5zM340 713q-47 -292 52.5 -452.5t312.5 -160.5 q85 0 170.5 41t157.5 113t125.5 178.5t72.5 229.5q14 74 11 147.5t-15.5 140.5t-44 124.5t-74.5 100t-106 67t-140 24.5q-113 0 -221.5 -64.5t-192 -193.5t-108.5 -295zM639 1466l324 353l213 -353h-121l-113 199l-180 -199h-123z"/>
<glyph unicode="Õ" horiz-adv-x="1388" d="M172 692q26 163 94 294t164 216t213 130.5t244 45.5q126 0 231.5 -54.5t175 -148.5t97.5 -228.5t4 -287.5q-26 -165 -95.5 -295.5t-167 -211.5t-213 -123.5t-241.5 -42.5q-176 0 -302.5 90.5t-180.5 252t-23 363.5zM340 713q-47 -292 52.5 -452.5t312.5 -160.5 q85 0 170.5 41t157.5 113t125.5 178.5t72.5 229.5q14 74 11 147.5t-15.5 140.5t-44 124.5t-74.5 100t-106 67t-140 24.5q-113 0 -221.5 -64.5t-192 -193.5t-108.5 -295zM543 1487q17 85 74.5 161t127.5 76q44 0 88 -21t73.5 -46.5t63.5 -46.5t60 -21q28 0 60 36.5t49 88.5 l57 -18q-18 -81 -75 -152.5t-132 -71.5q-45 0 -97.5 32t-96.5 63.5t-66 31.5q-42 0 -78.5 -35.5t-50.5 -99.5q-6 4 -30.5 12.5t-26.5 10.5z"/>
<glyph unicode="Ö" horiz-adv-x="1388" d="M172 692q26 163 94 294t164 216t213 130.5t244 45.5q126 0 231.5 -54.5t175 -148.5t97.5 -228.5t4 -287.5q-26 -165 -95.5 -295.5t-167 -211.5t-213 -123.5t-241.5 -42.5q-176 0 -302.5 90.5t-180.5 252t-23 363.5zM340 713q-47 -292 52.5 -452.5t312.5 -160.5 q85 0 170.5 41t157.5 113t125.5 178.5t72.5 229.5q14 74 11 147.5t-15.5 140.5t-44 124.5t-74.5 100t-106 67t-140 24.5q-113 0 -221.5 -64.5t-192 -193.5t-108.5 -295zM615 1569q6 40 37 68t71 28t64 -28t18 -68t-38 -67t-72 -27t-63 27t-17 67zM992 1569q6 40 37 68t71 28 t64 -28t18 -68q-6 -39 -38.5 -66.5t-72.5 -27.5t-62.5 27t-16.5 67z"/>
<glyph unicode="×" horiz-adv-x="817" d="M160 326l258 221l-185 223l91 78l186 -221l254 219l65 -78l-256 -221l189 -221l-92 -78l-187 221l-258 -223z"/>
<glyph unicode="Ø" horiz-adv-x="1388" d="M147 -125l160 229q-103 92 -146 240t-14 332q26 162 96 296t167 222t216 136t246 48q150 0 271 -73l104 149h135l-151 -217q95 -96 134.5 -240.5t10.5 -320.5q-26 -165 -97 -298t-169.5 -217.5t-216 -129.5t-242.5 -45q-141 0 -252 57l-116 -168h-136zM319 731 q-52 -324 80 -495l664 954q-95 76 -227 76q-114 0 -220.5 -60t-189 -184.5t-107.5 -290.5zM479 158q92 -58 211 -58q85 0 169.5 39t155.5 108.5t123.5 174t71.5 227.5q22 121 4 244t-75 211z"/>
<glyph unicode="Ù" horiz-adv-x="1220" d="M226.5 270.5q-26.5 136.5 2.5 331.5l121 764h246q-39 -16 -73 -52.5t-40 -74.5l-106 -672q-13 -80 -14 -145.5t8.5 -114t30 -85t47.5 -60t64 -38t77 -20.5t90 -6q139 0 246 126.5t137 310.5l133 831h113l-133 -823q-39 -252 -175.5 -403.5t-341.5 -151.5 q-191 0 -298.5 73t-134 209.5zM578 1731h184l229 -274l-121 2z"/>
<glyph unicode="Ú" horiz-adv-x="1220" d="M226.5 270.5q-26.5 136.5 2.5 331.5l121 764h246q-39 -16 -73 -52.5t-40 -74.5l-106 -672q-13 -80 -14 -145.5t8.5 -114t30 -85t47.5 -60t64 -38t77 -20.5t90 -6q139 0 246 126.5t137 310.5l133 831h113l-133 -823q-39 -252 -175.5 -403.5t-341.5 -151.5 q-191 0 -298.5 73t-134 209.5zM779 1461l319 274h172l-379 -272z"/>
<glyph unicode="Û" horiz-adv-x="1220" d="M226.5 270.5q-26.5 136.5 2.5 331.5l121 764h246q-39 -16 -73 -52.5t-40 -74.5l-106 -672q-13 -80 -14 -145.5t8.5 -114t30 -85t47.5 -60t64 -38t77 -20.5t90 -6q139 0 246 126.5t137 310.5l133 831h113l-133 -823q-39 -252 -175.5 -403.5t-341.5 -151.5 q-191 0 -298.5 73t-134 209.5zM616 1464l324 353l213 -353h-121l-112 199l-181 -199h-123z"/>
<glyph unicode="Ü" horiz-adv-x="1220" d="M226.5 270.5q-26.5 136.5 2.5 331.5l121 764h246q-39 -16 -73 -52.5t-40 -74.5l-106 -672q-13 -80 -14 -145.5t8.5 -114t30 -85t47.5 -60t64 -38t77 -20.5t90 -6q139 0 246 126.5t137 310.5l133 831h113l-133 -823q-39 -252 -175.5 -403.5t-341.5 -151.5 q-191 0 -298.5 73t-134 209.5zM584 1536q6 40 37 68t71 28t64 -28t18 -68t-38 -67t-72 -27t-63 27t-17 67zM961 1536q6 40 37 68t71 28t64 -28t18 -68q-6 -39 -38.5 -66.5t-72.5 -27.5t-62.5 27t-16.5 67z"/>
<glyph unicode="Ý" horiz-adv-x="1142" d="M240 1366h252q-63 -48 -15 -152l221 -499l490 651h141l-590 -786l-92 -580h-153l92 578zM744 1430l319 274h172l-379 -272z"/>
<glyph unicode="Þ" horiz-adv-x="1085" d="M43 0q49 29 77 60.5t36 82.5l194 1223h154l-43 -266h270q102 0 179.5 -31.5t122.5 -86t62 -125t5 -150.5q-16 -103 -65.5 -182.5t-120.5 -127t-152 -71t-168 -23.5h-260l-47 -303h-244zM352 416h228q55 0 110 16.5t106 48.5t88.5 88.5t49.5 128.5q21 124 -47.5 206.5 t-202.5 82.5h-242z"/>
<glyph unicode="ß" horiz-adv-x="962" d="M131 0l182 1157q13 81 50.5 145t90 103t113 59.5t123.5 20.5q49 0 96.5 -21.5t84 -60t54 -100t5.5 -134.5q-8 -54 -37 -108.5t-64.5 -95.5t-82 -81t-80 -63.5t-68.5 -44.5q184 0 281 -106.5t67 -294.5q-14 -88 -58 -162.5t-103 -122t-126.5 -74t-132.5 -26.5 q-43 0 -91.5 12.5t-65.5 32.5l-2 147q115 -71 176 -71q29 0 67 16.5t77.5 46t70.5 79.5t41 109q13 80 -8 141.5t-70 100t-115.5 59.5t-148.5 25l-23 100q63 40 107.5 72t106 84t99 109t46.5 114q15 93 -18.5 145t-98.5 52q-92 0 -148.5 -64.5t-70.5 -166.5l-181 -1133h-145z "/>
<glyph unicode="à" d="M137 274q21 135 138.5 221.5t302.5 127.5l229 51q19 94 -16.5 146t-124.5 52q-88 0 -193 -42.5t-194 -112.5q11 78 34 129q63 52 165.5 95.5t183.5 43.5q68 0 121 -12.5t85.5 -34.5t54.5 -51.5t29 -63t9.5 -70t-5.5 -71.5l-82 -518q-6 -40 14.5 -92t49.5 -72h-244l15 96 q-170 -108 -314 -108q-133 2 -206 80.5t-52 205.5zM291 262q-10 -68 24 -118t117 -42q65 7 151.5 35.5t143.5 67.5l55 352l-166 -37q-35 -8 -67 -17.5t-78 -31t-80.5 -47.5t-63 -68.5t-36.5 -93.5zM426 1366h184l230 -274l-121 2z"/>
<glyph unicode="á" d="M137 274q21 135 138.5 221.5t302.5 127.5l229 51q19 94 -16.5 146t-124.5 52q-88 0 -193 -42.5t-194 -112.5q11 78 34 129q63 52 165.5 95.5t183.5 43.5q68 0 121 -12.5t85.5 -34.5t54.5 -51.5t29 -63t9.5 -70t-5.5 -71.5l-82 -518q-6 -40 14.5 -92t49.5 -72h-244l15 96 q-170 -108 -314 -108q-133 2 -206 80.5t-52 205.5zM291 262q-10 -68 24 -118t117 -42q65 7 151.5 35.5t143.5 67.5l55 352l-166 -37q-35 -8 -67 -17.5t-78 -31t-80.5 -47.5t-63 -68.5t-36.5 -93.5zM621 1092l319 274h172l-379 -272z"/>
<glyph unicode="â" d="M137 274q21 135 138.5 221.5t302.5 127.5l229 51q19 94 -16.5 146t-124.5 52q-88 0 -193 -42.5t-194 -112.5q11 78 34 129q63 52 165.5 95.5t183.5 43.5q68 0 121 -12.5t85.5 -34.5t54.5 -51.5t29 -63t9.5 -70t-5.5 -71.5l-82 -518q-6 -40 14.5 -92t49.5 -72h-244l15 96 q-170 -108 -314 -108q-133 2 -206 80.5t-52 205.5zM291 262q-10 -68 24 -118t117 -42q65 7 151.5 35.5t143.5 67.5l55 352l-166 -37q-35 -8 -67 -17.5t-78 -31t-80.5 -47.5t-63 -68.5t-36.5 -93.5zM473 1122l324 353l213 -353h-121l-113 199l-180 -199h-123z"/>
<glyph unicode="ã" d="M137 274q21 135 138.5 221.5t302.5 127.5l229 51q19 94 -16.5 146t-124.5 52q-88 0 -193 -42.5t-194 -112.5q11 78 34 129q63 52 165.5 95.5t183.5 43.5q68 0 121 -12.5t85.5 -34.5t54.5 -51.5t29 -63t9.5 -70t-5.5 -71.5l-82 -518q-6 -40 14.5 -92t49.5 -72h-244l15 96 q-170 -108 -314 -108q-133 2 -206 80.5t-52 205.5zM291 262q-10 -68 24 -118t117 -42q65 7 151.5 35.5t143.5 67.5l55 352l-166 -37q-35 -8 -67 -17.5t-78 -31t-80.5 -47.5t-63 -68.5t-36.5 -93.5zM394 1145q17 85 74.5 161t127.5 76q44 0 88 -21t73.5 -46.5t63.5 -46.5 t60 -21q28 0 60 36.5t49 88.5l57 -18q-18 -81 -75 -152.5t-132 -71.5q-45 0 -97.5 32t-96.5 63.5t-66 31.5q-42 0 -78.5 -35.5t-50.5 -99.5q-6 4 -30.5 12.5t-26.5 10.5z"/>
<glyph unicode="ä" d="M137 274q21 135 138.5 221.5t302.5 127.5l229 51q19 94 -16.5 146t-124.5 52q-88 0 -193 -42.5t-194 -112.5q11 78 34 129q63 52 165.5 95.5t183.5 43.5q68 0 121 -12.5t85.5 -34.5t54.5 -51.5t29 -63t9.5 -70t-5.5 -71.5l-82 -518q-6 -40 14.5 -92t49.5 -72h-244l15 96 q-170 -108 -314 -108q-133 2 -206 80.5t-52 205.5zM291 262q-10 -68 24 -118t117 -42q65 7 151.5 35.5t143.5 67.5l55 352l-166 -37q-35 -8 -67 -17.5t-78 -31t-80.5 -47.5t-63 -68.5t-36.5 -93.5zM489 1278q6 40 37.5 68t71.5 28t64 -28t18 -68q-6 -39 -38.5 -66.5 t-72.5 -27.5t-63 27t-17 67zM866 1278q6 40 37.5 68t71.5 28t64 -28t18 -68q-6 -39 -38.5 -66.5t-72.5 -27.5t-63 27t-17 67z"/>
<glyph unicode="å" d="M137 274q21 135 138.5 221.5t302.5 127.5l229 51q19 94 -16.5 146t-124.5 52q-88 0 -193 -42.5t-194 -112.5q11 78 34 129q63 52 165.5 95.5t183.5 43.5q68 0 121 -12.5t85.5 -34.5t54.5 -51.5t29 -63t9.5 -70t-5.5 -71.5l-82 -518q-6 -40 14.5 -92t49.5 -72h-244l15 96 q-170 -108 -314 -108q-133 2 -206 80.5t-52 205.5zM291 262q-10 -68 24 -118t117 -42q65 7 151.5 35.5t143.5 67.5l55 352l-166 -37q-35 -8 -67 -17.5t-78 -31t-80.5 -47.5t-63 -68.5t-36.5 -93.5zM625 1288q11 76 71.5 128t151.5 52q86 0 131.5 -52.5t34.5 -127.5 q-13 -78 -72.5 -130t-150.5 -52q-88 0 -133 52.5t-33 129.5zM721 1290q-7 -43 16 -70.5t66 -27.5q42 0 75 28t40 70q6 38 -18.5 66t-65.5 28q-42 0 -74.5 -27.5t-38.5 -66.5z"/>
<glyph unicode="æ" horiz-adv-x="1566" d="M131 274q21 125 142 216.5t302 138.5l220 57q18 68 -27.5 119t-120.5 51q-184 0 -328 -111h3q-12 -8 -35.5 -3t-26.5 18q-19 36 21 67q83 70 190.5 114t194.5 44q217 0 258 -145q136 145 325 145q155 0 239 -113.5t75 -279.5l-672 -250q11 -100 85.5 -156.5t170.5 -56.5 q67 0 139.5 24.5t120.5 51.5l31 -72q-83 -65 -162.5 -104t-175.5 -39q-243 0 -322 190l-131 -82q-156 -95 -274 -108q-131 2 -196.5 78.5t-45.5 205.5zM281 287q-10 -66 29 -111t124 -37q56 6 158.5 53.5t159.5 90.5q-18 155 18 295l-94 -25q-85 -22 -166.5 -57.5 t-150.5 -92.5t-78 -116zM887 459l524 188q-3 101 -59 156t-144 55q-65 0 -125 -39t-101 -98.5t-66.5 -129t-28.5 -132.5z"/>
<glyph unicode="ç" horiz-adv-x="989" d="M170 510q18 116 68 207.5t121.5 149.5t157 88t179.5 30q113 0 197.5 -30.5t128.5 -65.5l-31 -191q-34 75 -114 125.5t-181 50.5q-131 0 -236 -111.5t-130 -266.5q-30 -188 28.5 -292t202.5 -104q91 0 194.5 37.5t166.5 75.5q-38 -102 -54 -127q-61 -38 -150.5 -67 t-174.5 -29q-203 0 -308 134t-65 386zM303 -283l39 47q66 -20 113 -20q99 0 110 70q3 27 -17 42t-54 15q-19 0 -53.5 -6.5t-59.5 -13.5l-25 -7l-37 37l138 144l49 -13l-86 -98q59 25 96 25q20 0 38 -1.5t45 -8.5t44.5 -19t28.5 -36.5t6 -57.5q-8 -54 -48 -89t-82.5 -46 t-88.5 -11q-32 0 -71 12t-62 24z"/>
<glyph unicode="è" horiz-adv-x="1062" d="M170 496q38 219 177 354t323 135q198 0 301 -122.5t69 -342.5l-10 -71h-702q-34 -347 233 -347q87 0 201 46t174 88l10 -86q-202 -160 -409 -160q-205 0 -305.5 135.5t-61.5 370.5zM342 561h543q18 145 -36.5 228t-180.5 83q-113 0 -202 -92t-124 -219zM479 1366h185 l229 -274l-121 2z"/>
<glyph unicode="é" horiz-adv-x="1062" d="M170 496q38 219 177 354t323 135q198 0 301 -122.5t69 -342.5l-10 -71h-702q-34 -347 233 -347q87 0 201 46t174 88l10 -86q-202 -160 -409 -160q-205 0 -305.5 135.5t-61.5 370.5zM342 561h543q18 145 -36.5 228t-180.5 83q-113 0 -202 -92t-124 -219zM584 1092l319 274 h172l-379 -272z"/>
<glyph unicode="ê" horiz-adv-x="1062" d="M170 496q38 219 177 354t323 135q198 0 301 -122.5t69 -342.5l-10 -71h-702q-34 -347 233 -347q87 0 201 46t174 88l10 -86q-202 -160 -409 -160q-205 0 -305.5 135.5t-61.5 370.5zM342 561h543q18 145 -36.5 228t-180.5 83q-113 0 -202 -92t-124 -219zM475 1081l324 353 l213 -353h-121l-113 199l-180 -199h-123z"/>
<glyph unicode="ë" horiz-adv-x="1062" d="M170 496q38 219 177 354t323 135q198 0 301 -122.5t69 -342.5l-10 -71h-702q-34 -347 233 -347q87 0 201 46t174 88l10 -86q-202 -160 -409 -160q-205 0 -305.5 135.5t-61.5 370.5zM342 561h543q18 145 -36.5 228t-180.5 83q-113 0 -202 -92t-124 -219zM512 1278 q6 40 37.5 68t71.5 28t63.5 -28t17.5 -68t-38 -67t-72 -27t-63 27t-17 67zM889 1278q6 40 37 68t71 28t64 -28t18 -68t-38 -67t-72 -27t-63 27t-17 67z"/>
<glyph unicode="ì" horiz-adv-x="520" d="M129 1403h184l230 -275l-121 2zM174 0l148 932l229 82q-28 -38 -57 -95t-35 -92l-131 -827h-154z"/>
<glyph unicode="í" horiz-adv-x="520" d="M174 0l148 932l229 82q-28 -38 -57 -95t-35 -92l-131 -827h-154zM406 1119l319 274h172l-379 -272z"/>
<glyph unicode="î" horiz-adv-x="520" d="M174 0l148 932l229 82q-28 -38 -57 -95t-35 -92l-131 -827h-154zM192 1097l324 353l213 -353h-121l-113 199l-180 -199h-123z"/>
<glyph unicode="ï" horiz-adv-x="520" d="M174 0l148 932l229 82q-28 -38 -57 -95t-35 -92l-131 -827h-154zM190 1288q6 40 37.5 68t71.5 28t64 -28t18 -68q-6 -39 -38.5 -66.5t-72.5 -27.5t-63 27t-17 67zM567 1288q6 40 37.5 68t71.5 28t64 -28t18 -68q-6 -39 -38.5 -66.5t-72.5 -27.5t-63 27t-17 67z"/>
<glyph unicode="ð" horiz-adv-x="1067" d="M164 481q25 155 100 270.5t181.5 174.5t230.5 59q156 0 246 -90q-18 148 -109 262l-186 -133l-60 92l158 113q-72 43 -158 43h-94l47 108q213 0 322 -67l170 123l61 -93l-147 -104q37 -46 49 -65q49 -77 69 -204.5t15.5 -248.5t-23.5 -240q-17 -112 -65.5 -205 t-116.5 -155t-152 -96.5t-174 -34.5q-197 0 -298 134t-66 357zM326 514q-30 -181 44 -290t205 -109q45 0 92 20.5t92 61t79.5 111t48.5 159.5q18 112 -1 200.5t-81.5 143.5t-163.5 55q-50 0 -97 -18.5t-91.5 -57t-78 -110t-48.5 -166.5z"/>
<glyph unicode="ñ" horiz-adv-x="1032" d="M133 0l119 750q6 36 -23.5 78.5t-62.5 45.5l278 121l-12 -80q165 70 299 70q148 0 218 -77.5t50 -196.5l-112 -711h-154l111 692q6 42 -1 80t-37 69t-81 31q-131 0 -311 -77l-127 -795h-154zM367 1145q17 85 74.5 161t127.5 76q44 0 88 -21t73.5 -46.5t63.5 -46.5t60 -21 q28 0 60 36.5t49 88.5l57 -18q-18 -81 -75 -152.5t-132 -71.5q-45 0 -97.5 32t-96.5 63.5t-66 31.5q-42 0 -78.5 -35.5t-50.5 -99.5q-6 4 -30.5 12.5t-26.5 10.5z"/>
<glyph unicode="ò" horiz-adv-x="1075" d="M168 492q19 120 69 215t120 155t154 91.5t177 31.5q200 0 304.5 -133t66.5 -379q-18 -119 -70.5 -214t-125 -152t-156.5 -87t-172 -30q-90 0 -165 33t-127 94.5t-73 158.5t-2 216zM328 498q-30 -189 30 -293.5t193 -104.5q49 0 103 23.5t104.5 67.5t89.5 117.5t53 162.5 q66 401 -231 401q-113 0 -213.5 -99.5t-128.5 -274.5zM547 1366h184l230 -274l-121 2z"/>
<glyph unicode="ó" horiz-adv-x="1075" d="M168 492q19 120 69 215t120 155t154 91.5t177 31.5q200 0 304.5 -133t66.5 -379q-18 -119 -70.5 -214t-125 -152t-156.5 -87t-172 -30q-90 0 -165 33t-127 94.5t-73 158.5t-2 216zM328 498q-30 -189 30 -293.5t193 -104.5q49 0 103 23.5t104.5 67.5t89.5 117.5t53 162.5 q66 401 -231 401q-113 0 -213.5 -99.5t-128.5 -274.5zM594 1092l319 274h172l-379 -272z"/>
<glyph unicode="ô" horiz-adv-x="1075" d="M168 492q19 120 69 215t120 155t154 91.5t177 31.5q200 0 304.5 -133t66.5 -379q-18 -119 -70.5 -214t-125 -152t-156.5 -87t-172 -30q-90 0 -165 33t-127 94.5t-73 158.5t-2 216zM328 498q-30 -189 30 -293.5t193 -104.5q49 0 103 23.5t104.5 67.5t89.5 117.5t53 162.5 q66 401 -231 401q-113 0 -213.5 -99.5t-128.5 -274.5zM483 1081l324 353l213 -353h-121l-113 199l-180 -199h-123z"/>
<glyph unicode="õ" horiz-adv-x="1075" d="M168 492q19 120 69 215t120 155t154 91.5t177 31.5q200 0 304.5 -133t66.5 -379q-18 -119 -70.5 -214t-125 -152t-156.5 -87t-172 -30q-90 0 -165 33t-127 94.5t-73 158.5t-2 216zM328 498q-30 -189 30 -293.5t193 -104.5q49 0 103 23.5t104.5 67.5t89.5 117.5t53 162.5 q66 401 -231 401q-113 0 -213.5 -99.5t-128.5 -274.5zM461 1145q17 85 74.5 161t127.5 76q44 0 88 -21t73.5 -46.5t63.5 -46.5t60 -21q28 0 60 36.5t49 88.5l57 -18q-18 -81 -75 -152.5t-132 -71.5q-45 0 -97.5 32t-96.5 63.5t-66 31.5q-42 0 -78.5 -35.5t-50.5 -99.5 q-6 4 -30.5 12.5t-26.5 10.5z"/>
<glyph unicode="ö" horiz-adv-x="1075" d="M168 492q19 120 69 215t120 155t154 91.5t177 31.5q200 0 304.5 -133t66.5 -379q-18 -119 -70.5 -214t-125 -152t-156.5 -87t-172 -30q-90 0 -165 33t-127 94.5t-73 158.5t-2 216zM328 498q-30 -189 30 -293.5t193 -104.5q49 0 103 23.5t104.5 67.5t89.5 117.5t53 162.5 q66 401 -231 401q-113 0 -213.5 -99.5t-128.5 -274.5zM489 1278q6 40 37.5 68t71.5 28t64 -28t18 -68q-6 -39 -38.5 -66.5t-72.5 -27.5t-63 27t-17 67zM866 1278q6 40 37.5 68t71.5 28t64 -28t18 -68q-6 -39 -38.5 -66.5t-72.5 -27.5t-63 27t-17 67z"/>
<glyph unicode="÷" horiz-adv-x="911" d="M156 434l18 127h731l-18 -127h-731zM385 170q6 40 39.5 69t73.5 29q38 0 58.5 -29t14.5 -69q-6 -42 -37 -71t-69 -29q-40 0 -63 28.5t-17 71.5zM485 823q6 44 38.5 72.5t72.5 28.5t63 -29t17 -72q-8 -41 -39.5 -69.5t-71.5 -28.5t-63.5 28t-16.5 70z"/>
<glyph unicode="ø" horiz-adv-x="1067" d="M61 -211l205 295q-140 130 -98 397q26 159 105.5 275t188 172.5t232.5 56.5q105 0 178 -33l146 207h129l-184 -264q141 -131 96 -414q-18 -119 -72 -215t-128.5 -155t-159.5 -90t-173 -31q-98 0 -168 33l-161 -234h-136zM266 84q40 -40 92 -61l76 110q-47 26 -78 80z M328 498q-30 -179 28 -285l441 629q-55 30 -135 30q-114 0 -210 -98.5t-124 -275.5zM434 133q50 -33 127 -33q49 0 101.5 23.5t101 67.5t86 117t51.5 163q32 194 -27 295zM797 842q48 -23 77 -76l89 129q-43 37 -91 57z"/>
<glyph unicode="ù" horiz-adv-x="1024" d="M162 868l282 127l-114 -721q-7 -40 2 -80t40.5 -71t82.5 -31q106 0 305 80l127 803h153l-153 -975h-154l8 51q-168 -69 -297 -69q-149 0 -219.5 77.5t-50.5 196.5l80 508q5 28 -24 64t-68 40zM377 1366h184l230 -274l-121 2z"/>
<glyph unicode="ú" horiz-adv-x="1024" d="M162 868l282 127l-114 -721q-7 -40 2 -80t40.5 -71t82.5 -31q106 0 305 80l127 803h153l-153 -975h-154l8 51q-168 -69 -297 -69q-149 0 -219.5 77.5t-50.5 196.5l80 508q5 28 -24 64t-68 40zM564 1092l319 274h172l-379 -272z"/>
<glyph unicode="û" horiz-adv-x="1024" d="M162 868l282 127l-114 -721q-7 -40 2 -80t40.5 -71t82.5 -31q106 0 305 80l127 803h153l-153 -975h-154l8 51q-168 -69 -297 -69q-149 0 -219.5 77.5t-50.5 196.5l80 508q5 28 -24 64t-68 40zM416 1081l324 353l213 -353h-121l-113 199l-180 -199h-123z"/>
<glyph unicode="ü" horiz-adv-x="1024" d="M162 868l282 127l-114 -721q-7 -40 2 -80t40.5 -71t82.5 -31q106 0 305 80l127 803h153l-153 -975h-154l8 51q-168 -69 -297 -69q-149 0 -219.5 77.5t-50.5 196.5l80 508q5 28 -24 64t-68 40zM430 1278q6 40 37.5 68t71.5 28t64 -28t18 -68q-6 -39 -38.5 -66.5 t-72.5 -27.5t-63 27t-17 67zM807 1278q6 40 37 68t71 28t64 -28t18 -68t-38 -67t-72 -27t-63 27t-17 67z"/>
<glyph unicode="ý" horiz-adv-x="987" d="M141 -410l265 471l-216 914h160l168 -725l311 534q32 60 25 114t-43 77h258l-790 -1385h-138zM551 1090l319 274h172l-378 -272z"/>
<glyph unicode="þ" horiz-adv-x="1071" d="M68 -410l272 1721q6 36 -23.5 76t-62.5 43l278 126l-100 -643q131 72 262 72q200 0 295.5 -131.5t59.5 -366.5q-34 -216 -178.5 -356.5t-333.5 -140.5q-100 0 -246 37l-70 -437h-153zM311 158q147 -54 252 -54q64 0 131 44.5t122 133t73 199.5q30 187 -25.5 289 t-191.5 102q-66 0 -138.5 -27t-123.5 -73z"/>
<glyph unicode="ÿ" horiz-adv-x="987" d="M141 -410l265 471l-216 914h160l168 -725l311 534q32 60 25 114t-43 77h258l-790 -1385h-138zM414 1278q6 40 37 68t71 28t64 -28t18 -68t-38 -67t-72 -27t-63 27t-17 67zM791 1278q6 40 37 68t71 28t64 -28t18 -68q-6 -39 -38.5 -66.5t-72.5 -27.5t-62.5 27t-16.5 67z "/>
<glyph unicode="Œ" horiz-adv-x="1937" d="M174 676q52 316 256 511t463 195q137 0 243 -63.5t167 -175.5l36 225h701l-23 -184q-14 8 -38 25t-38.5 22.5t-59 11.5t-118.5 6h-297l-75 -469h501l-20 -116h-500l-86 -549h289q23 0 45.5 1.5t39.5 3t36.5 5.5t30.5 6t29 8t24.5 8t23.5 10t19.5 9.5t20 10.5t18.5 9 l-27 -186h-713l33 205q-96 -108 -221 -165.5t-262 -57.5q-175 0 -299.5 91t-176.5 249.5t-22 353.5zM360 731q-29 -181 2 -322t121.5 -222t227.5 -81q175 0 319.5 153t183.5 400q13 69 10 140t-14.5 137t-41.5 124.5t-71 101.5t-104 68t-139 25q-85 0 -164 -34t-146 -98 t-116 -165t-68 -227z"/>
<glyph unicode="œ" horiz-adv-x="1755" d="M164 481q36 227 180 365.5t332 138.5q123 0 209 -49t127 -141q72 93 171.5 142.5t215.5 49.5q111 0 191 -54.5t117 -143t32 -195.5l-713 -248q13 -102 91.5 -166.5t178.5 -64.5q16 0 33.5 2t33 5t34 8.5t32 9.5t31.5 11.5t28.5 12t27.5 12.5t23.5 11.5t21 11t16.5 8.5 l35 -72q-88 -65 -173.5 -104t-187.5 -39q-126 0 -213.5 47t-130.5 137q-73 -90 -172 -138t-207 -48q-195 0 -296.5 137.5t-67.5 353.5zM317 500q-29 -180 45 -282.5t207 -102.5q45 0 93.5 22.5t94.5 66t82 116t50 161.5q27 172 -35 278.5t-213 106.5q-49 0 -98 -20.5 t-95 -62t-81 -115t-50 -168.5zM1020 463l567 190q-4 100 -68.5 153.5t-158.5 53.5q-70 0 -133.5 -38.5t-106.5 -98t-69.5 -128.5t-30.5 -132z"/>
<glyph unicode="Ÿ" horiz-adv-x="1142" d="M240 1366h252q-63 -48 -15 -152l221 -499l490 651h141l-590 -786l-92 -580h-153l92 578zM551 1669q6 40 37 68t71 28t64 -28t18 -68t-38 -67t-72 -27t-63 27t-17 67zM928 1669q6 40 37 68t71 28t64 -28t18 -68t-38 -67t-72 -27t-63 27t-17 67z"/>
<glyph unicode="ˆ" horiz-adv-x="958" d="M391 1081l324 353l213 -353h-121l-113 199l-180 -199h-123z"/>
<glyph unicode="˜" horiz-adv-x="987" d="M365 1145q17 85 74.5 161t127.5 76q44 0 88 -21t73.5 -46.5t63.5 -46.5t60 -21q28 0 60 36.5t49 88.5l57 -18q-18 -81 -75 -152.5t-132 -71.5q-45 0 -97.5 32t-96.5 63.5t-66 31.5q-42 0 -78.5 -35.5t-50.5 -99.5q-6 4 -30.5 12.5t-26.5 10.5z"/>
<glyph unicode=" " horiz-adv-x="912"/>
<glyph unicode=" " horiz-adv-x="1825"/>
<glyph unicode=" " horiz-adv-x="912"/>
<glyph unicode=" " horiz-adv-x="1825"/>
<glyph unicode=" " horiz-adv-x="608"/>
<glyph unicode=" " horiz-adv-x="456"/>
<glyph unicode=" " horiz-adv-x="304"/>
<glyph unicode=" " horiz-adv-x="304"/>
<glyph unicode=" " horiz-adv-x="228"/>
<glyph unicode=" " horiz-adv-x="365"/>
<glyph unicode=" " horiz-adv-x="101"/>
<glyph unicode="‐" horiz-adv-x="759" d="M174 504l19 119h542l-18 -119h-543z"/>
<glyph unicode="‑" horiz-adv-x="759" d="M174 504l19 119h542l-18 -119h-543z"/>
<glyph unicode="‒" horiz-adv-x="759" d="M174 504l19 119h542l-18 -119h-543z"/>
<glyph unicode="–" horiz-adv-x="966" d="M209 496l20 127h732l-21 -127h-731z"/>
<glyph unicode="—" horiz-adv-x="1529" d="M207 496l20 127h1301l-21 -127h-1300z"/>
<glyph unicode="‘" horiz-adv-x="350" d="M211 887q-9 44 4 133q11 70 64.5 167t117.5 183l105 -22q-42 -65 -81 -163.5t-48 -146.5q-12 -74 8 -123q-80 -28 -170 -28z"/>
<glyph unicode="’" horiz-adv-x="370" d="M209 909q44 65 83 164t46 146q12 77 -6 122q79 29 170 29q8 -51 -4 -133q-20 -129 -183 -350z"/>
<glyph unicode="‚" horiz-adv-x="346" d="M72 12q0 2 1 4.5t2.5 6.5t2.5 6q30 47 62.5 120.5t37.5 102.5q2 28 -16 53q-16 16 -11.5 39.5t25.5 30.5l109 14l26 -24q14 -49 8 -93q-5 -37 -45 -105.5t-95 -126.5t-93 -58q-8 0 -12 9t-2 21z"/>
<glyph unicode="“" horiz-adv-x="686" d="M211 887q-9 44 4 133q11 70 64.5 167t117.5 183l105 -22q-42 -65 -81 -163.5t-48 -146.5q-12 -74 8 -123q-80 -28 -170 -28zM522 887q-9 44 4 133q20 129 183 350l104 -22q-42 -65 -81 -163.5t-48 -146.5q-12 -74 8 -123q-80 -28 -170 -28z"/>
<glyph unicode="”" horiz-adv-x="686" d="M197 909q44 65 83 164t46 146q12 75 -7 122q79 29 170 29q8 -51 -4 -133q-11 -70 -64.5 -167t-117.5 -183zM508 909q44 65 83 164t46 146q12 77 -6 122q79 29 170 29q8 -51 -4 -133q-20 -129 -183 -350z"/>
<glyph unicode="„" horiz-adv-x="651" d="M72 12q0 2 1 4.5t2.5 6.5t2.5 6q30 47 62.5 120.5t37.5 102.5q2 28 -16 53q-16 16 -11.5 39.5t25.5 30.5l107 14l26 -24q14 -49 8 -93q-5 -37 -44.5 -105.5t-94 -126.5t-92.5 -58q-8 0 -12 9t-2 21zM356 12q0 1 0.5 3.5t1.5 4.5t2 4.5t2 4.5q31 47 63.5 121t37.5 102 q2 26 -17 53q-16 16 -11.5 39.5t26.5 30.5l106 14l29 -24q14 -49 8 -93q-5 -37 -45 -105.5t-95 -126.5t-93 -58q-9 0 -13 9.5t-2 20.5z"/>
<glyph unicode="•" horiz-adv-x="489" d="M180 520q11 63 62 108.5t112 45.5q60 0 94 -45.5t23 -108.5q-10 -67 -58 -111t-108 -44q-62 0 -98.5 44t-26.5 111z"/>
<glyph unicode="…" horiz-adv-x="1210" d="M113 88q6 40 38.5 69t71.5 29q38 0 60 -29t16 -69q-8 -43 -38 -71.5t-68 -28.5q-40 0 -63.5 29t-16.5 71zM516 88q6 40 38.5 69t72.5 29q38 0 59.5 -29t15.5 -69q-8 -43 -38 -71.5t-68 -28.5q-40 0 -63.5 29t-16.5 71zM920 88q6 40 38.5 69t71.5 29q38 0 60 -29t16 -69 q-8 -43 -38.5 -71.5t-68.5 -28.5q-40 0 -63 29t-16 71z"/>
<glyph unicode=" " horiz-adv-x="365"/>
<glyph unicode="‹" horiz-adv-x="759" d="M176 432l25 135l518 312l37 -50l-414 -325l299 -352l-51 -48z"/>
<glyph unicode="›" horiz-adv-x="759" d="M141 152l410 352l-311 325l53 50l420 -312l-21 -135l-516 -328z"/>
<glyph unicode=" " horiz-adv-x="456"/>
<glyph unicode="€" horiz-adv-x="1382" d="M117 496l86 116h133q4 63 24 164h-188l74 113h147q81 220 253 354.5t388 134.5q76 0 143 -12.5t106.5 -26t78.5 -38.5t50 -35t32 -29l-31 -193q-21 34 -39.5 59t-53.5 58t-73.5 54t-98 36t-128.5 15q-144 0 -274.5 -101.5t-196.5 -275.5h399l-76 -113h-356 q-17 -58 -22 -164h409l-76 -116h-331q8 -98 40 -175.5t80.5 -125.5t108 -72.5t125.5 -24.5t117.5 9.5t98.5 34.5t70 41t72 56q13 10 19 15q48 39 76 80l-66 -221q-24 -12 -75 -40t-73 -37.5t-65.5 -24.5t-91 -20t-111.5 -5q-222 0 -351 133t-136 377h-217z"/>
<glyph unicode="™" horiz-adv-x="1806" d="M246 1264q2 18 14 51t23 47h647q18 -23 8 -98q-49 14 -72 14h-227l-113 -711h-96l113 711h-215q-19 0 -82 -14zM918 567l184 795h57q22 0 39 -12.5t23 -36.5l127 -545q58 98 243 430l90 164h101l-64 -795h-96l51 633l-168 -313q-27 -49 -86 -157t-88 -163h-39l-139 602 l-139 -602h-96z"/>
<glyph unicode="" horiz-adv-x="972" d="M0 0v973h973v-973h-973z"/>
</font>
</defs>
</svg>
